<?xml version="1.0" encoding="utf-8"?>
<svg xmlns="http://www.w3.org/2000/svg"
	xmlns:xlink="http://www.w3.org/1999/xlink"
	width="1178px" height="92px">
<path fill-rule="evenodd" d=" M1177 60.0133 C1177 60.0133 1136 60.0133 1136 60.0133 C1136 60.0133 1136 34.5151 1136 34.5151 C1136 33.9633 1135.55 33.5168 1135 33.5168 C1135 33.5168 1104.5 33.5168 1104.5 33.5168 C1103.95 33.5168 1103.5 33.9633 1103.5 34.5151 C1103.5 34.5151 1103.5 63.5483 1103.5 63.5483 C1103.5 63.5483 1088.92 63.5483 1088.92 63.5483 C1088.92 63.5483 1088.92 48.4081 1088.92 48.4081 C1088.92 47.8574 1088.47 47.4099 1087.92 47.4099 C1087.92 47.4099 1076.42 47.4099 1076.42 47.4099 C1076.42 47.4099 1076.42 36.8411 1076.42 36.8411 C1076.42 36.2903 1075.97 35.8428 1075.42 35.8428 C1075.42 35.8428 1031 35.8428 1031 35.8428 C1030.45 35.8428 1030 36.2903 1030 36.8411 C1030 36.8411 1030 51.8185 1030 51.8185 C1030 51.8185 1016.5 51.8185 1016.5 51.8185 C1016.5 51.8185 1016.5 14.6322 1016.5 14.6322 C1016.5 14.0813 1016.05 13.6339 1015.5 13.6339 C1015.5 13.6339 982.535 13.6339 982.535 13.6339 C981.983 13.6339 981.535 14.0813 981.535 14.6322 C981.535 14.6322 981.535 63.5483 981.535 63.5483 C981.535 63.5483 975.119 63.5483 975.119 63.5483 C975.119 63.5483 975.119 42.6241 975.119 42.6241 C975.119 42.0724 974.671 41.6259 974.119 41.6259 C974.119 41.6259 959 41.6259 959 41.6259 C958.447 41.6259 958 42.0724 958 42.6241 C958 42.6241 958 63.5483 958 63.5483 C958 63.5483 946.356 63.5483 946.356 63.5483 C946.356 63.5483 946.356 50.6827 946.356 50.6827 C946.356 50.1318 945.909 49.6844 945.356 49.6844 C945.356 49.6844 925.821 49.6844 925.821 49.6844 C925.821 49.6844 925.821 34.5151 925.821 34.5151 C925.821 33.9633 925.374 33.5168 924.821 33.5168 C924.821 33.5168 893.614 33.5168 893.614 33.5168 C893.614 33.5168 893.614 28.2758 893.614 28.2758 C893.614 27.7239 893.167 27.2775 892.614 27.2775 C892.614 27.2775 882.956 27.2775 882.956 27.2775 C882.404 27.2775 881.956 27.7239 881.956 28.2758 C881.956 28.2758 881.956 33.5168 881.956 33.5168 C881.956 33.5168 874.868 33.5168 874.868 33.5168 C874.868 33.5168 874.868 28.2758 874.868 28.2758 C874.868 27.7239 874.421 27.2775 873.868 27.2775 C873.868 27.2775 864.211 27.2775 864.211 27.2775 C863.658 27.2775 863.211 27.7239 863.211 28.2758 C863.211 28.2758 863.211 33.5168 863.211 33.5168 C863.211 33.5168 853.321 33.5168 853.321 33.5168 C852.77 33.5168 852.321 33.9633 852.321 34.5151 C852.321 34.5151 852.321 70.0751 852.321 70.0751 C852.321 70.0751 837.632 70.0751 837.632 70.0751 C837.632 70.0751 837.632 0.994412 837.632 0.994412 C837.632 0.442589 837.185 -0.00390432 836.632 -0.00390432 C836.632 -0.00390432 815.821 -0.00390432 815.821 -0.00390432 C815.27 -0.00390432 814.821 0.442589 814.821 0.994412 C814.821 0.994412 814.821 62.4905 814.821 62.4905 C814.821 62.4905 793.881 62.4905 793.881 62.4905 C793.881 62.4905 793.881 50.6827 793.881 50.6827 C793.881 50.1318 793.433 49.6844 792.881 49.6844 C792.881 49.6844 752.065 49.6844 752.065 49.6844 C751.513 49.6844 751.065 50.1318 751.065 50.6827 C751.065 50.6827 751.065 73.7446 751.065 73.7446 C751.065 73.7446 739 73.7446 739 73.7446 C739 73.7446 739 30.2295 739 30.2295 C739 29.6776 738.553 29.2312 738 29.2312 C738 29.2312 712.356 29.2312 712.356 29.2312 C711.804 29.2312 711.356 29.6776 711.356 30.2295 C711.356 30.2295 711.356 67.0423 711.356 67.0423 C711.356 67.0423 696.167 67.0423 696.167 67.0423 C696.167 67.0423 696.167 58.3911 696.167 58.3911 C696.167 57.8403 695.719 57.3928 695.167 57.3928 C695.167 57.3928 678.167 57.3928 678.167 57.3928 C678.167 57.3928 678.167 48.4081 678.167 48.4081 C678.167 47.8574 677.719 47.4099 677.167 47.4099 C677.167 47.4099 635.833 47.4099 635.833 47.4099 C635.281 47.4099 634.833 47.8574 634.833 48.4081 C634.833 48.4081 634.833 66.7099 634.833 66.7099 C634.833 66.7099 614.167 66.7099 614.167 66.7099 C614.167 66.7099 614.167 58.7236 614.167 58.7236 C614.167 58.1718 613.719 57.7253 613.167 57.7253 C613.167 57.7253 606.833 57.7253 606.833 57.7253 C606.833 57.7253 606.833 14.4664 606.833 14.4664 C606.833 14.1623 606.693 13.8737 606.455 13.6845 C606.216 13.4944 605.901 13.4253 605.606 13.4944 C605.606 13.4944 565.606 22.8115 565.606 22.8115 C565.153 22.9168 564.833 23.3194 564.833 23.7835 C564.833 23.7835 564.833 79.3551 564.833 79.3551 C564.833 79.3551 557.167 79.3551 557.167 79.3551 C557.167 79.3551 557.167 61.0526 557.167 61.0526 C557.167 60.5017 556.719 60.0543 556.167 60.0543 C556.167 60.0543 548.5 60.0543 548.5 60.0543 C548.5 60.0543 548.5 41.7527 548.5 41.7527 C548.5 41.2008 548.053 40.7544 547.5 40.7544 C547.5 40.7544 534.167 40.7544 534.167 40.7544 C533.615 40.7544 533.167 41.2008 533.167 41.7527 C533.167 41.7527 533.167 50.0715 533.167 50.0715 C533.167 50.0715 525.167 50.0715 525.167 50.0715 C524.615 50.0715 524.167 50.5188 524.167 51.0697 C524.167 51.0697 524.167 67.7081 524.167 67.7081 C524.167 67.7081 498.167 67.7081 498.167 67.7081 C498.167 67.7081 498.167 53.3996 498.167 53.3996 C498.167 52.8489 497.719 52.4013 497.167 52.4013 C497.167 52.4013 478.833 52.4013 478.833 52.4013 C478.833 52.4013 478.833 43.4168 478.833 43.4168 C478.833 42.866 478.385 42.4184 477.833 42.4184 C477.833 42.4184 438.833 42.4184 438.833 42.4184 C438.281 42.4184 437.833 42.866 437.833 43.4168 C437.833 43.4168 437.833 57.0595 437.833 57.0595 C437.833 57.0595 428.5 57.0595 428.5 57.0595 C427.947 57.0595 427.5 57.5069 427.5 58.0577 C427.5 58.0577 427.5 82.4085 427.5 82.4085 C427.5 82.4085 421.027 82.4085 421.027 82.4085 C421.027 82.4085 421.027 73.4151 421.027 73.4151 C421.027 72.8634 420.58 72.4168 420.027 72.4168 C420.027 72.4168 410.727 72.4168 410.727 72.4168 C410.727 72.4168 410.727 29.0829 410.727 29.0829 C410.727 28.5312 410.279 28.0846 409.727 28.0846 C409.727 28.0846 405.189 28.0846 405.189 28.0846 C405.189 28.0846 405.189 25.4944 405.189 25.4944 C405.189 24.9426 404.741 24.4961 404.189 24.4961 C404.189 24.4961 393.888 24.4961 393.888 24.4961 C393.335 24.4961 392.888 24.9426 392.888 25.4944 C392.888 25.4944 392.888 28.0846 392.888 28.0846 C392.888 28.0846 388.349 28.0846 388.349 28.0846 C387.796 28.0846 387.349 28.5312 387.349 29.0829 C387.349 29.0829 387.349 83.282 387.349 83.282 C387.349 83.282 382.353 83.282 382.353 83.282 C382.353 83.282 382.353 65.3821 382.353 65.3821 C382.353 64.8312 381.904 64.3838 381.353 64.3838 C381.353 64.3838 377.151 64.3838 377.151 64.3838 C377.151 64.3838 370.356 59.8066 370.356 59.8066 C370.191 59.6955 369.996 59.636 369.797 59.636 C369.797 59.636 362.748 59.636 362.748 59.636 C362.549 59.636 362.354 59.6955 362.189 59.8066 C362.189 59.8066 355.394 64.3838 355.394 64.3838 C355.394 64.3838 350.549 64.3838 350.549 64.3838 C349.997 64.3838 349.549 64.8312 349.549 65.3821 C349.549 65.3821 349.549 71.9323 349.549 71.9323 C349.549 71.9323 343.872 71.9323 343.872 71.9323 C343.872 71.9323 343.872 49.7458 343.872 49.7458 C343.872 49.1949 343.424 48.7475 342.872 48.7475 C342.872 48.7475 333.475 48.7475 333.475 48.7475 C333.475 48.7475 333.475 44.1196 333.475 44.1196 C333.475 43.5679 333.027 43.1213 332.475 43.1213 C332.475 43.1213 326.393 43.1213 326.393 43.1213 C326.393 43.1213 323.911 32.5451 323.911 32.5451 C324.096 31.9263 324.199 31.2722 324.199 30.594 C324.199 30.594 324.199 26.3231 324.199 26.3231 C324.199 26.3231 324.476 26.599 324.476 26.599 C324.671 26.7939 324.927 26.8914 325.183 26.8914 C325.439 26.8914 325.694 26.7939 325.89 26.599 C326.28 26.209 326.28 25.5773 325.89 25.1873 C325.89 25.1873 318.073 17.3842 318.073 17.3842 C317.683 16.9944 317.05 16.9944 316.659 17.3842 C316.659 17.3842 308.843 25.1873 308.843 25.1873 C308.452 25.5773 308.452 26.209 308.843 26.599 C309.233 26.9889 309.866 26.9889 310.257 26.599 C310.257 26.599 310.533 26.3236 310.533 26.3236 C310.533 26.3236 310.533 30.594 310.533 30.594 C310.533 31.2722 310.636 31.9263 310.822 32.5451 C310.822 32.5451 308.339 43.1213 308.339 43.1213 C308.339 43.1213 301.768 43.1213 301.768 43.1213 C301.215 43.1213 300.768 43.5679 300.768 44.1196 C300.768 44.1196 300.768 48.7475 300.768 48.7475 C300.768 48.7475 291.953 48.7475 291.953 48.7475 C291.4 48.7475 290.953 49.1949 290.953 49.7458 C290.953 49.7458 290.953 60.0971 290.953 60.0971 C290.953 60.0971 285.957 60.0971 285.957 60.0971 C285.957 60.0971 285.957 54.3054 285.957 54.3054 C285.957 53.7545 285.51 53.3071 284.957 53.3071 C284.957 53.3071 247.643 53.3071 247.643 53.3071 C247.09 53.3071 246.643 53.7545 246.643 54.3054 C246.643 54.3054 246.643 85.9006 246.643 85.9006 C246.643 85.9006 236.496 85.9006 236.496 85.9006 C236.496 85.9006 236.496 76.7132 236.496 76.7132 C236.496 76.1614 236.048 75.7149 235.496 75.7149 C235.496 75.7149 202.389 75.7149 202.389 75.7149 C202.389 75.7149 202.389 18.6253 202.389 18.6253 C202.389 18.0745 201.941 17.6271 201.389 17.6271 C201.389 17.6271 174.259 17.6271 174.259 17.6271 C173.706 17.6271 173.259 18.0745 173.259 18.6253 C173.259 18.6253 173.259 59.056 173.259 59.056 C173.259 59.056 167 59.056 167 59.056 C167 59.056 167 56.5603 167 56.5603 C167 56.0095 166.553 55.562 166 55.562 C166 55.562 129 55.562 129 55.562 C128.447 55.562 128 56.0095 128 56.5603 C128 56.5603 128 90.003 128 90.003 C128 90.003 120.405 90.003 120.405 90.003 C120.405 90.003 120.405 62.0508 120.405 62.0508 C120.405 61.5 119.958 61.0526 119.405 61.0526 C119.405 61.0526 99.6553 61.0526 99.6553 61.0526 C99.1025 61.0526 98.6553 61.5 98.6553 62.0508 C98.6553 62.0508 98.6553 67.0423 98.6553 67.0423 C98.6553 67.0423 91.4111 67.0423 91.4111 67.0423 C91.4111 67.0423 91.4111 62.0508 91.4111 62.0508 C91.4111 61.5 90.9639 61.0526 90.4111 61.0526 C90.4111 61.0526 70.6612 61.0526 70.6612 61.0526 C70.1094 61.0526 69.6611 61.5 69.6611 62.0508 C69.6611 62.0508 69.6611 74.5295 69.6611 74.5295 C69.6611 74.5295 63.5 74.5295 63.5 74.5295 C63.5 74.5295 63.5 48.4081 63.5 48.4081 C63.5 47.8574 63.0528 47.4099 62.5 47.4099 C62.5 47.4099 23 47.4099 23 47.4099 C22.4474 47.4099 22 47.8574 22 48.4081 C22 48.4081 22 74.5295 22 74.5295 C22 74.5295 1.00006 74.5295 1.00006 74.5295 C0.447334 74.5295 8.03365e-007 74.9769 8.03365e-007 75.5278 C8.03365e-007 76.0785 0.447334 76.526 1.00006 76.526 C1.00006 76.526 23 76.526 23 76.526 C23.5527 76.526 24 76.0785 24 75.5278 C24 75.5278 24 49.4065 24 49.4065 C24 49.4065 61.5 49.4065 61.5 49.4065 C61.5 49.4065 61.5 75.5278 61.5 75.5278 C61.5 76.0785 61.9473 76.526 62.5 76.526 C62.5 76.526 70.6612 76.526 70.6612 76.526 C71.2139 76.526 71.6612 76.0785 71.6612 75.5278 C71.6612 75.5278 71.6612 63.0492 71.6612 63.0492 C71.6612 63.0492 89.4111 63.0492 89.4111 63.0492 C89.4111 63.0492 89.4111 68.0406 89.4111 68.0406 C89.4111 68.5914 89.8595 69.0389 90.4111 69.0389 C90.4111 69.0389 99.6553 69.0389 99.6553 69.0389 C100.208 69.0389 100.655 68.5914 100.655 68.0406 C100.655 68.0406 100.655 63.0492 100.655 63.0492 C100.655 63.0492 118.405 63.0492 118.405 63.0492 C118.405 63.0492 118.405 91.0012 118.405 91.0012 C118.405 91.552 118.853 91.9995 119.405 91.9995 C119.405 91.9995 129 91.9995 129 91.9995 C129.553 91.9995 130 91.552 130 91.0012 C130 91.0012 130 57.5586 130 57.5586 C130 57.5586 165 57.5586 165 57.5586 C165 57.5586 165 60.0543 165 60.0543 C165 60.605 165.447 61.0526 166 61.0526 C166 61.0526 174.259 61.0526 174.259 61.0526 C174.812 61.0526 175.259 60.605 175.259 60.0543 C175.259 60.0543 175.259 19.6236 175.259 19.6236 C175.259 19.6236 200.389 19.6236 200.389 19.6236 C200.389 19.6236 200.389 76.7132 200.389 76.7132 C200.389 77.265 200.837 77.7115 201.389 77.7115 C201.389 77.7115 234.496 77.7115 234.496 77.7115 C234.496 77.7115 234.496 86.8988 234.496 86.8988 C234.496 87.4497 234.943 87.8971 235.496 87.8971 C235.496 87.8971 247.643 87.8971 247.643 87.8971 C248.195 87.8971 248.643 87.4497 248.643 86.8988 C248.643 86.8988 248.643 55.3036 248.643 55.3036 C248.643 55.3036 283.957 55.3036 283.957 55.3036 C283.957 55.3036 283.957 61.0955 283.957 61.0955 C283.957 61.6473 284.404 62.0937 284.957 62.0937 C284.957 62.0937 291.953 62.0937 291.953 62.0937 C292.506 62.0937 292.953 61.6473 292.953 61.0955 C292.953 61.0955 292.953 50.744 292.953 50.744 C292.953 50.744 301.768 50.744 301.768 50.744 C302.32 50.744 302.768 50.2975 302.768 49.7458 C302.768 49.7458 302.768 45.1179 302.768 45.1179 C302.768 45.1179 331.475 45.1179 331.475 45.1179 C331.475 45.1179 331.475 49.7458 331.475 49.7458 C331.475 50.2975 331.922 50.744 332.475 50.744 C332.475 50.744 341.872 50.744 341.872 50.744 C341.872 50.744 341.872 72.9307 341.872 72.9307 C341.872 73.4824 342.32 73.9289 342.872 73.9289 C342.872 73.9289 350.549 73.9289 350.549 73.9289 C351.102 73.9289 351.549 73.4824 351.549 72.9307 C351.549 72.9307 351.549 66.3804 351.549 66.3804 C351.549 66.3804 355.699 66.3804 355.699 66.3804 C355.898 66.3804 356.093 66.3209 356.259 66.2098 C356.259 66.2098 363.054 61.6326 363.054 61.6326 C363.054 61.6326 369.491 61.6326 369.491 61.6326 C369.491 61.6326 376.286 66.2098 376.286 66.2098 C376.452 66.3209 376.646 66.3804 376.846 66.3804 C376.846 66.3804 380.353 66.3804 380.353 66.3804 C380.353 66.3804 380.353 84.2802 380.353 84.2802 C380.353 84.8321 380.801 85.2785 381.353 85.2785 C381.353 85.2785 388.349 85.2785 388.349 85.2785 C388.901 85.2785 389.349 84.8321 389.349 84.2802 C389.349 84.2802 389.349 30.0812 389.349 30.0812 C389.349 30.0812 393.888 30.0812 393.888 30.0812 C394.44 30.0812 394.888 29.6348 394.888 29.0829 C394.888 29.0829 394.888 26.4927 394.888 26.4927 C394.888 26.4927 403.189 26.4927 403.189 26.4927 C403.189 26.4927 403.189 29.0829 403.189 29.0829 C403.189 29.6348 403.636 30.0812 404.189 30.0812 C404.189 30.0812 408.727 30.0812 408.727 30.0812 C408.727 30.0812 408.727 73.4151 408.727 73.4151 C408.727 73.9669 409.174 74.4134 409.727 74.4134 C409.727 74.4134 419.027 74.4134 419.027 74.4134 C419.027 74.4134 419.027 83.4067 419.027 83.4067 C419.027 83.9586 419.475 84.405 420.027 84.405 C420.027 84.405 428.5 84.405 428.5 84.405 C429.053 84.405 429.5 83.9586 429.5 83.4067 C429.5 83.4067 429.5 59.056 429.5 59.056 C429.5 59.056 438.833 59.056 438.833 59.056 C439.385 59.056 439.833 58.6085 439.833 58.0577 C439.833 58.0577 439.833 44.415 439.833 44.415 C439.833 44.415 476.833 44.415 476.833 44.415 C476.833 44.415 476.833 53.3996 476.833 53.3996 C476.833 53.9504 477.281 54.3979 477.833 54.3979 C477.833 54.3979 496.167 54.3979 496.167 54.3979 C496.167 54.3979 496.167 68.7064 496.167 68.7064 C496.167 69.2582 496.615 69.7048 497.167 69.7048 C497.167 69.7048 525.167 69.7048 525.167 69.7048 C525.719 69.7048 526.167 69.2582 526.167 68.7064 C526.167 68.7064 526.167 52.068 526.167 52.068 C526.167 52.068 534.167 52.068 534.167 52.068 C534.719 52.068 535.167 51.6205 535.167 51.0697 C535.167 51.0697 535.167 42.7509 535.167 42.7509 C535.167 42.7509 546.5 42.7509 546.5 42.7509 C546.5 42.7509 546.5 61.0526 546.5 61.0526 C546.5 61.6034 546.947 62.0508 547.5 62.0508 C547.5 62.0508 555.167 62.0508 555.167 62.0508 C555.167 62.0508 555.167 80.3534 555.167 80.3534 C555.167 80.9043 555.615 81.3517 556.167 81.3517 C556.167 81.3517 565.833 81.3517 565.833 81.3517 C566.385 81.3517 566.833 80.9043 566.833 80.3534 C566.833 80.3534 566.833 24.5761 566.833 24.5761 C566.833 24.5761 604.833 15.724 604.833 15.724 C604.833 15.724 604.833 58.7236 604.833 58.7236 C604.833 59.2753 605.281 59.7219 605.833 59.7219 C605.833 59.7219 612.167 59.7219 612.167 59.7219 C612.167 59.7219 612.167 67.7081 612.167 67.7081 C612.167 68.26 612.615 68.7064 613.167 68.7064 C613.167 68.7064 635.833 68.7064 635.833 68.7064 C636.385 68.7064 636.833 68.26 636.833 67.7081 C636.833 67.7081 636.833 49.4065 636.833 49.4065 C636.833 49.4065 676.167 49.4065 676.167 49.4065 C676.167 49.4065 676.167 58.3911 676.167 58.3911 C676.167 58.9419 676.615 59.3893 677.167 59.3893 C677.167 59.3893 694.167 59.3893 694.167 59.3893 C694.167 59.3893 694.167 68.0406 694.167 68.0406 C694.167 68.5914 694.615 69.0389 695.167 69.0389 C695.167 69.0389 712.356 69.0389 712.356 69.0389 C712.909 69.0389 713.356 68.5914 713.356 68.0406 C713.356 68.0406 713.356 31.2278 713.356 31.2278 C713.356 31.2278 737 31.2278 737 31.2278 C737 31.2278 737 74.7429 737 74.7429 C737 75.2938 737.447 75.7412 738 75.7412 C738 75.7412 752.065 75.7412 752.065 75.7412 C752.618 75.7412 753.065 75.2938 753.065 74.7429 C753.065 74.7429 753.065 51.6809 753.065 51.6809 C753.065 51.6809 791.881 51.6809 791.881 51.6809 C791.881 51.6809 791.881 63.4888 791.881 63.4888 C791.881 64.0405 792.329 64.4871 792.881 64.4871 C792.881 64.4871 815.821 64.4871 815.821 64.4871 C816.374 64.4871 816.821 64.0405 816.821 63.4888 C816.821 63.4888 816.821 1.99263 816.821 1.99263 C816.821 1.99263 835.632 1.99263 835.632 1.99263 C835.632 1.99263 835.632 71.0734 835.632 71.0734 C835.632 71.6253 836.079 72.0717 836.632 72.0717 C836.632 72.0717 853.321 72.0717 853.321 72.0717 C853.874 72.0717 854.321 71.6253 854.321 71.0734 C854.321 71.0734 854.321 35.5134 854.321 35.5134 C854.321 35.5134 864.211 35.5134 864.211 35.5134 C864.764 35.5134 865.211 35.0668 865.211 34.5151 C865.211 34.5151 865.211 29.2741 865.211 29.2741 C865.211 29.2741 872.868 29.2741 872.868 29.2741 C872.868 29.2741 872.868 34.5151 872.868 34.5151 C872.868 35.0668 873.315 35.5134 873.868 35.5134 C873.868 35.5134 882.956 35.5134 882.956 35.5134 C883.509 35.5134 883.956 35.0668 883.956 34.5151 C883.956 34.5151 883.956 29.2741 883.956 29.2741 C883.956 29.2741 891.614 29.2741 891.614 29.2741 C891.614 29.2741 891.614 34.5151 891.614 34.5151 C891.614 35.0668 892.062 35.5134 892.614 35.5134 C892.614 35.5134 923.821 35.5134 923.821 35.5134 C923.821 35.5134 923.821 50.6827 923.821 50.6827 C923.821 51.2334 924.27 51.6809 924.821 51.6809 C924.821 51.6809 944.356 51.6809 944.356 51.6809 C944.356 51.6809 944.356 64.5466 944.356 64.5466 C944.356 65.0974 944.804 65.5448 945.356 65.5448 C945.356 65.5448 959 65.5448 959 65.5448 C959.553 65.5448 960 65.0974 960 64.5466 C960 64.5466 960 43.6225 960 43.6225 C960 43.6225 973.119 43.6225 973.119 43.6225 C973.119 43.6225 973.119 64.5466 973.119 64.5466 C973.119 65.0974 973.567 65.5448 974.119 65.5448 C974.119 65.5448 982.535 65.5448 982.535 65.5448 C983.087 65.5448 983.535 65.0974 983.535 64.5466 C983.535 64.5466 983.535 15.6305 983.535 15.6305 C983.535 15.6305 1014.5 15.6305 1014.5 15.6305 C1014.5 15.6305 1014.5 52.8167 1014.5 52.8167 C1014.5 53.3675 1014.95 53.815 1015.5 53.815 C1015.5 53.815 1031 53.815 1031 53.815 C1031.55 53.815 1032 53.3675 1032 52.8167 C1032 52.8167 1032 37.8394 1032 37.8394 C1032 37.8394 1074.42 37.8394 1074.42 37.8394 C1074.42 37.8394 1074.42 48.4081 1074.42 48.4081 C1074.42 48.9591 1074.86 49.4065 1075.42 49.4065 C1075.42 49.4065 1086.92 49.4065 1086.92 49.4065 C1086.92 49.4065 1086.92 64.5466 1086.92 64.5466 C1086.92 65.0974 1087.36 65.5448 1087.92 65.5448 C1087.92 65.5448 1104.5 65.5448 1104.5 65.5448 C1105.05 65.5448 1105.5 65.0974 1105.5 64.5466 C1105.5 64.5466 1105.5 35.5134 1105.5 35.5134 C1105.5 35.5134 1134 35.5134 1134 35.5134 C1134 35.5134 1134 61.0116 1134 61.0116 C1134 61.5634 1134.45 62.0098 1135 62.0098 C1135 62.0098 1177 62.0098 1177 62.0098 C1177.55 62.0098 1178 61.5634 1178 61.0116 C1178 60.4598 1177.55 60.0133 1177 60.0133 Z M324.339 43.1213 C324.339 43.1213 318.366 43.1213 318.366 43.1213 C318.366 43.1213 318.366 37.3339 318.366 37.3339 C319.986 37.095 321.42 36.2899 322.462 35.1231 C322.462 35.1231 324.339 43.1213 324.339 43.1213 Z M317.366 19.5017 C317.366 19.5017 322.199 24.3264 322.199 24.3264 C322.199 24.3264 322.199 30.594 322.199 30.594 C322.199 32.9119 320.553 34.8507 318.366 35.3121 C318.366 35.3121 318.366 32.5038 318.366 32.5038 C318.366 31.9521 317.919 31.5055 317.366 31.5055 C316.814 31.5055 316.366 31.9521 316.366 32.5038 C316.366 32.5038 316.366 35.3121 316.366 35.3121 C314.18 34.8507 312.533 32.9119 312.532 30.594 C312.532 30.594 312.532 24.3274 312.532 24.3274 C312.532 24.3274 317.366 19.5017 317.366 19.5017 Z M312.271 35.1231 C313.313 36.2899 314.746 37.095 316.366 37.3339 C316.366 37.3339 316.366 43.1213 316.366 43.1213 C316.366 43.1213 310.394 43.1213 310.394 43.1213 C310.394 43.1213 312.271 35.1231 312.271 35.1231 Z" fill="#101010"></path>
</svg>
