<?xml version="1.0" encoding="utf-8"?>
<!DOCTYPE svg PUBLIC "-//W3C//DTD SVG 1.1//EN" "http://www.w3.org/Graphics/SVG/1.1/DTD/svg11.dtd">
<svg version="1.1" baseProfile="full" 
	xmlns="http://www.w3.org/2000/svg"
	xmlns:xlink="http://www.w3.org/1999/xlink"
	xmlns:ev="http://www.w3.org/2001/xml-events"
	width="16px" height="16px">
<path fill="#fc0" fill-rule="evenodd" d="M15 9 C14.4477 9 14 8.5522 14 8 C14 7.4477 14.4477 7 15 7 C15.5523 7 16 7.4477 16 8 C16 8.5522 15.5523 9 15 9 Z M14.5622 5.366 C14.0839 5.6422 13.4723 5.4783 13.1962 5 C12.92 4.5217 13.0839 3.9101 13.5622 3.634 C14.0405 3.3578 14.652 3.5217 14.9282 4 C15.2043 4.4783 15.0405 5.0898 14.5622 5.366 Z M12 14.9282 C11.5217 15.2043 10.9101 15.0405 10.634 14.5621 C10.3578 14.0839 10.5217 13.4723 11 13.1962 C11.4783 12.92 12.0899 13.0839 12.366 13.5621 C12.6422 14.0405 12.4783 14.652 12 14.9282 Z M11 2.8038 C10.5217 2.5277 10.3578 1.9161 10.634 1.4378 C10.9101 0.959499 11.5217 0.7957 12 1.0718 C12.4783 1.3479 12.6422 1.9595 12.366 2.4378 C12.0899 2.9161 11.4783 3.08 11 2.8038 Z M8 2 C7.4477 2 7 1.5522 7 1 C7 0.447704 7.4477 1.67781e-006 8 1.67781e-006 C8.5523 1.67781e-006 9 0.447704 9 1 C9 1.5522 8.5523 2 8 2 Z M5 2.8038 C4.5217 3.08 3.9101 2.9161 3.634 2.4378 C3.3578 1.9595 3.5217 1.3479 4 1.0718 C4.4783 0.7957 5.0899 0.959499 5.366 1.4378 C5.6422 1.9161 5.4783 2.5277 5 2.8038 Z M2.4378 12.366 C1.9595 12.6422 1.348 12.4783 1.0718 12 C0.795699 11.5217 0.959504 10.9101 1.4378 10.634 C1.9161 10.3578 2.5277 10.5217 2.8038 11 C3.08 11.4783 2.9161 12.0898 2.4378 12.366 Z M1.4378 5.366 C0.959504 5.0898 0.795699 4.4783 1.0718 4 C1.348 3.5217 1.9595 3.3578 2.4378 3.634 C2.9161 3.9101 3.08 4.5217 2.8038 5 C2.5277 5.4783 1.9161 5.6422 1.4378 5.366 Z M2 8 C2 8.5522 1.5523 9 1 9 C0.447703 9 4.85718e-007 8.5522 4.85718e-007 8 C4.85718e-007 7.4477 0.447703 7 1 7 C1.5523 7 2 7.4477 2 8 Z M5 13.1962 C5.4783 13.4723 5.6422 14.0839 5.366 14.5621 C5.0899 15.0405 4.4783 15.2043 4 14.9282 C3.5217 14.652 3.3578 14.0405 3.634 13.5621 C3.9101 13.0839 4.5217 12.92 5 13.1962 Z M4 8 C4 5.7908 5.7908 4 8 4 C10.2092 4 12 5.7908 12 8 C12 10.2091 10.2092 12 8 12 C5.7908 12 4 10.2091 4 8 Z M8 14 C8.5523 14 9 14.4477 9 15 C9 15.5522 8.5523 16 8 16 C7.4477 16 7 15.5522 7 15 C7 14.4477 7.4477 14 8 14 Z M14.5622 10.634 C15.0405 10.9101 15.2043 11.5217 14.9282 12 C14.652 12.4783 14.0405 12.6422 13.5622 12.366 C13.0839 12.0898 12.92 11.4783 13.1962 11 C13.4723 10.5217 14.0839 10.3578 14.5622 10.634 Z"/>
</svg>
