<?xml version="1.0" encoding="utf-8"?>
<!-- Generator: Adobe Illustrator 18.0.0, SVG Export Plug-In . SVG Version: 6.00 Build 0)  -->
<!DOCTYPE svg PUBLIC "-//W3C//DTD SVG 1.1//EN" "http://www.w3.org/Graphics/SVG/1.1/DTD/svg11.dtd">
<svg version="1.1" id="Layer_1" xmlns="http://www.w3.org/2000/svg" xmlns:xlink="http://www.w3.org/1999/xlink" x="0px" y="0px"
	 viewBox="0 0 154.3 32.2" enable-background="new 0 0 154.3 32.2" xml:space="preserve">
<g>
	<g>
		<g>
			<path fill="#F15A5B" d="M54.9,9c0.7,0,1.3-0.3,1.7-0.8l0.9,0.9c-0.7,0.8-1.6,1.2-2.5,1.2s-1.8-0.3-2.4-0.9
				c-0.6-0.6-0.9-1.4-0.9-2.3c0-0.9,0.3-1.7,1-2.3c0.6-0.6,1.4-0.9,2.4-0.9c1,0,1.9,0.4,2.6,1.2l-0.9,1c-0.4-0.6-1-0.8-1.7-0.8
				c-0.5,0-1,0.2-1.4,0.5S53,6.5,53,7s0.2,1.1,0.5,1.4C53.9,8.8,54.4,9,54.9,9z"/>
			<path fill="#F15A5B" d="M63.6,3.9H65v6.3h-1.4V7.7h-2.5v2.5h-1.4V3.9h1.4v2.6h2.5V3.9z"/>
			<path fill="#F15A5B" d="M67.7,3.9h1.4v6.3h-1.4V3.9z"/>
			<path fill="#F15A5B" d="M74.7,9c0.7,0,1.3-0.3,1.7-0.8l0.9,0.9c-0.7,0.8-1.6,1.2-2.5,1.2S73,10,72.4,9.4
				c-0.6-0.6-0.9-1.4-0.9-2.3c0-0.9,0.3-1.7,1-2.3c0.6-0.6,1.4-0.9,2.4-0.9c1,0,1.9,0.4,2.6,1.2l-0.9,1c-0.4-0.6-1-0.8-1.7-0.8
				c-0.5,0-1,0.2-1.4,0.5S72.9,6.5,72.9,7s0.2,1.1,0.5,1.4C73.8,8.8,74.2,9,74.7,9z"/>
			<path fill="#F15A5B" d="M84,10.2l-0.6-1.4h-2.6l-0.6,1.4h-1.5l2.7-6.3h1.4l2.7,6.3H84z M82.1,5.8l-0.8,1.8h1.6L82.1,5.8z"/>
			<path fill="#F15A5B" d="M91.5,7h1.4v2.2c-0.6,0.7-1.5,1-2.6,1c-0.9,0-1.7-0.3-2.3-0.9C87.4,8.8,87,8,87,7.1c0-0.9,0.3-1.7,1-2.3
				c0.6-0.6,1.4-0.9,2.3-0.9c0.9,0,1.7,0.3,2.4,0.9L92,5.7c-0.3-0.2-0.5-0.4-0.8-0.5c-0.2-0.1-0.5-0.1-0.8-0.1c-0.5,0-1,0.2-1.4,0.5
				c-0.4,0.4-0.6,0.8-0.6,1.4c0,0.6,0.2,1.1,0.5,1.4C89.4,8.9,89.8,9,90.3,9s0.9-0.1,1.2-0.3V7z"/>
			<path fill="#F15A5B" d="M100.6,9.4c-0.6,0.6-1.4,0.9-2.4,0.9s-1.7-0.3-2.4-0.9C95.3,8.7,95,8,95,7c0-0.9,0.3-1.7,1-2.3
				c0.6-0.6,1.4-0.9,2.4-0.9s1.7,0.3,2.4,0.9c0.6,0.6,1,1.4,1,2.3C101.6,8,101.3,8.7,100.6,9.4z M100.2,7c0-0.6-0.2-1-0.5-1.4
				C99.2,5.2,98.8,5,98.3,5c-0.5,0-1,0.2-1.3,0.6C96.6,6,96.4,6.5,96.4,7c0,0.6,0.2,1,0.5,1.4c0.4,0.4,0.8,0.6,1.3,0.6
				c0.5,0,1-0.2,1.3-0.6C100,8.1,100.2,7.6,100.2,7z"/>
		</g>
	</g>
	<polygon fill="#F15A5B" points="28.4,3 29.3,5.2 31.8,4.9 30.3,6.9 31.8,8.8 29.3,8.6 28.4,10.8 27.4,8.6 25,8.8 26.4,6.9 25,4.9 
		27.4,5.2 	"/>
	<polygon fill="#F15A5B" points="41.1,3 42.1,5.2 44.5,4.9 43,6.9 44.5,8.8 42.1,8.6 41.1,10.8 40.1,8.6 37.7,8.8 39.1,6.9 
		37.7,4.9 40.1,5.2 	"/>
	<polygon fill="#F15A5B" points="111,3 112,5.2 114.4,4.9 113,6.9 114.4,8.8 112,8.6 111,10.8 110,8.6 107.6,8.8 109.1,6.9 
		107.6,4.9 110,5.2 	"/>
	<polygon fill="#F15A5B" points="123.7,3 124.7,5.2 127.1,4.9 125.7,6.9 127.1,8.8 124.7,8.6 123.7,10.8 122.8,8.6 120.3,8.8 
		121.8,6.9 120.3,4.9 122.8,5.2 	"/>
	<g>
		<path fill="#4F4F4F" d="M7.4,22l1.7-5.6h2.3l1.7,5.6l1.9-5.6h2.4L14,26.1h-1.6l-2.1-6.8l-2.1,6.8H6.5l-3.4-9.7h2.4L7.4,22z"/>
		<path fill="#4F4F4F" d="M20.3,16.4h2.2v9.7h-2.2V16.4z"/>
		<path fill="#4F4F4F" d="M26.6,26.1v-9.7h2.2v7.8h4.1v1.9H26.6z"/>
		<path fill="#4F4F4F" d="M43.6,17.7c0.9,0.8,1.4,2,1.4,3.5c0,1.5-0.5,2.7-1.4,3.6c-0.9,0.9-2.3,1.3-4.1,1.3h-3.3v-9.7h3.4
			C41.4,16.4,42.7,16.8,43.6,17.7z M42.1,23.5c0.5-0.5,0.8-1.2,0.8-2.2c0-1-0.3-1.7-0.8-2.2c-0.5-0.5-1.4-0.8-2.5-0.8h-1.2v5.9h1.4
			C40.8,24.2,41.5,24,42.1,23.5z"/>
		<path fill="#4F4F4F" d="M48.7,26.1v-9.7h2.2v7.8H55v1.9H48.7z"/>
		<path fill="#4F4F4F" d="M58.3,16.4h2.2v9.7h-2.2V16.4z"/>
		<path fill="#4F4F4F" d="M71.3,16.4v1.9h-4.5v2.1h4.3v1.9h-4.3v3.8h-2.2v-9.7H71.3z"/>
		<path fill="#4F4F4F" d="M81.9,16.4v1.9H77v2h4.4v1.8H77v2h5v1.9h-7.2v-9.7H81.9z"/>
		<path fill="#4F4F4F" d="M94.1,22l1.7-5.6h2.3l1.7,5.6l1.9-5.6h2.4l-3.4,9.7h-1.6L97,19.4l-2.1,6.8h-1.6l-3.4-9.7h2.4L94.1,22z"/>
		<path fill="#4F4F4F" d="M113.4,26.1l-0.9-2.1h-4.1l-0.9,2.1h-2.3l4.2-9.7h2.1l4.2,9.7H113.4z M110.5,19.3l-1.2,2.8h2.4L110.5,19.3
			z"/>
		<path fill="#4F4F4F" d="M122,18.3v7.8h-2.2v-7.8h-2.8v-1.9h7.7v1.9H122z"/>
		<path fill="#4F4F4F" d="M132.6,24.2c1.1,0,1.9-0.4,2.6-1.3l1.4,1.4c-1.1,1.2-2.4,1.9-3.9,1.9c-1.5,0-2.7-0.5-3.7-1.4
			c-1-0.9-1.5-2.1-1.5-3.6c0-1.4,0.5-2.6,1.5-3.6c1-1,2.2-1.4,3.6-1.4c1.6,0,2.9,0.6,4,1.8l-1.3,1.5c-0.7-0.9-1.5-1.3-2.6-1.3
			c-0.8,0-1.5,0.3-2.1,0.8c-0.6,0.5-0.9,1.3-0.9,2.2s0.3,1.6,0.8,2.2C131.1,23.9,131.8,24.2,132.6,24.2z"/>
		<path fill="#4F4F4F" d="M146,16.4h2.2v9.7H146v-3.8h-3.9v3.8H140v-9.7h2.2v4.1h3.9V16.4z"/>
	</g>
</g>
</svg>
