<?xml version="1.0" encoding="utf-8"?>
<!DOCTYPE svg PUBLIC "-//W3C//DTD SVG 1.1//EN" "http://www.w3.org/Graphics/SVG/1.1/DTD/svg11.dtd">
<svg version="1.1" baseProfile="full" 
	xmlns="http://www.w3.org/2000/svg"
	xmlns:xlink="http://www.w3.org/1999/xlink"
	xmlns:ev="http://www.w3.org/2001/xml-events"
	width="24px" height="26px">
<path fill="rgb(43,47,49)" fill-rule="evenodd" d="M12 2 C16.6944 2 20.5 5.8055 20.5 10.5 C20.5 12.4868 19.813 14.3099 18.6709 15.7572 C18.6709 15.7572 18.9805 16.0669 18.9805 16.0669 C20.6055 17.6909 21.5 19.8506 21.5 22.1484 C21.5 22.1484 21.5 23 21.5 23 C21.5 23.5522 21.0527 24 20.5 24 C19.9473 24 19.5 23.5522 19.5 23 C19.5 23 19.5 22.1484 19.5 22.1484 C19.5 20.3853 18.8135 18.7275 17.5664 17.481 C17.5664 17.481 17.2568 17.1712 17.2568 17.1712 C15.8096 18.3132 13.9865 19 12 19 C10.0135 19 8.19041 18.3132 6.74321 17.1712 C6.74321 17.1712 6.43359 17.481 6.43359 17.481 C5.18652 18.7275 4.50002 20.3853 4.50002 22.1484 C4.50002 22.1484 4.50002 23 4.50002 23 C4.50002 23.5522 4.05272 24 3.5 24 C2.94732 24 2.50002 23.5522 2.50002 23 C2.50002 23 2.50002 22.1484 2.50002 22.1484 C2.50002 19.8506 3.3945 17.6909 5.0195 16.0669 C5.0195 16.0669 5.32912 15.7572 5.32912 15.7572 C4.18701 14.3099 3.5 12.4868 3.5 10.5 C3.5 5.8055 7.30561 2 12 2 M12 8.70714e-006 C6.21032 8.70714e-006 1.5 4.71031 1.5 10.5 C1.5 12.2942 1.94492 14.0137 2.79869 15.5545 C1.30891 17.422 0.500012 19.7228 0.500012 22.1484 C0.500012 22.1484 0.500012 23 0.500012 23 C0.500012 24.6542 1.8458 26 3.5 26 C5.15421 26 6.49999 24.6542 6.49999 23 C6.49999 23 6.49999 22.1484 6.49999 22.1484 C6.49999 21.3108 6.7222 20.5075 7.1389 19.8058 C8.62961 20.5913 10.2806 21 12 21 C13.7194 21 15.3704 20.5913 16.8611 19.8058 C17.2778 20.5077 17.5 21.3109 17.5 22.1484 C17.5 22.1484 17.5 23 17.5 23 C17.5 24.6542 18.8458 26 20.5 26 C22.1542 26 23.5 24.6542 23.5 23 C23.5 23 23.5 22.1484 23.5 22.1484 C23.5 19.723 22.6913 17.4224 21.2013 15.5546 C22.055 14.0138 22.5 12.2942 22.5 10.5 C22.5 4.71031 17.7897 8.70714e-006 12 8.70714e-006 C12 8.70714e-006 12 8.70714e-006 12 8.70714e-006 Z"/>
</svg>