<?xml version="1.0" encoding="utf-8"?>
<!DOCTYPE svg PUBLIC "-//W3C//DTD SVG 1.1//EN" "http://www.w3.org/Graphics/SVG/1.1/DTD/svg11.dtd">
<svg version="1.1" baseProfile="full" 
	xmlns="http://www.w3.org/2000/svg"
	xmlns:xlink="http://www.w3.org/1999/xlink"
	xmlns:ev="http://www.w3.org/2001/xml-events"
	width="20px" height="26px">
<path fill="rgb(43,47,49)" fill-rule="evenodd" d="M10 2.25001 C12.4853 2.25001 14.5 4.26471 14.5 6.75 C14.5 7.33351 14.3804 7.8871 14.1783 8.39871 C15.4349 10.4545 17.5 15.0026 17.5 22.75 C17.5 23.3022 17.0527 23.75 16.5 23.75 C15.9473 23.75 15.5 23.3022 15.5 22.75 C15.5 16.3224 13.9823 12.2772 12.8799 10.1813 C12.0976 10.8386 11.1017 11.25 10 11.25 C8.89842 11.25 7.9026 10.8387 7.12041 10.1815 C6.01791 12.2773 4.50001 16.322 4.50001 22.75 C4.50001 23.3022 4.05271 23.75 3.5 23.75 C2.94731 23.75 2.50001 23.3022 2.50001 22.75 C2.50001 15.0026 4.5651 10.4545 5.82172 8.39881 C5.6196 7.8871 5.5 7.33351 5.5 6.75 C5.5 4.26471 7.5147 2.25001 10 2.25001 M10 0.250005 C6.41592 0.250005 3.5 3.16591 3.5 6.75 C3.5 7.2205 3.5529 7.6896 3.6578 8.1527 C2.30939 10.651 0.500006 15.3782 0.500006 22.75 C0.500006 24.4042 1.84582 25.75 3.5 25.75 C5.1542 25.75 6.50002 24.4042 6.50002 22.75 C6.50002 18.2466 7.29741 15.0227 8.0754 12.9496 C8.69702 13.1471 9.3459 13.25 10 13.25 C10.6542 13.25 11.3032 13.1471 11.9249 12.9495 C12.7028 15.0228 13.5 18.2466 13.5 22.75 C13.5 24.4042 14.8458 25.75 16.5 25.75 C18.1542 25.75 19.5 24.4042 19.5 22.75 C19.5 15.378 17.6906 10.6509 16.3422 8.1527 C16.4471 7.6896 16.5 7.2205 16.5 6.75 C16.5 3.16591 13.5841 0.250005 10 0.250005 C10 0.250005 10 0.250005 10 0.250005 Z"/>
</svg>