<?xml version="1.0" encoding="utf-8"?>
<!DOCTYPE svg PUBLIC "-//W3C//DTD SVG 1.1//EN" "http://www.w3.org/Graphics/SVG/1.1/DTD/svg11.dtd">
<svg version="1.1" baseProfile="full" 
	xmlns="http://www.w3.org/2000/svg"
	xmlns:xlink="http://www.w3.org/1999/xlink"
	xmlns:ev="http://www.w3.org/2001/xml-events"
	width="14px" height="18px">
<path fill="rgb(43,47,49)" fill-rule="evenodd" d="M6.99999 2.50001 C8.50272 2.50001 9.72092 3.71821 9.72092 5.2209 C9.72092 5.5737 9.6487 5.9085 9.5264 6.2178 C10.2863 7.4609 11.5349 10.2109 11.5349 14.8954 C11.5349 15.2293 11.2644 15.5 10.9302 15.5 C10.5961 15.5 10.3256 15.2293 10.3256 14.8954 C10.3256 11.0089 9.40802 8.56301 8.74131 7.29571 C8.26832 7.69311 7.6661 7.9419 6.99999 7.9419 C6.334 7.9419 5.73181 7.6932 5.25891 7.2958 C4.5922 8.56301 3.67441 11.0087 3.67441 14.8954 C3.67441 15.2293 3.4039 15.5 3.06981 15.5 C2.73561 15.5 2.46509 15.2293 2.46509 14.8954 C2.46509 10.2109 3.71372 7.4609 4.47362 6.21791 C4.35131 5.9085 4.2791 5.5737 4.2791 5.2209 C4.2791 3.71821 5.4973 2.50001 6.99999 2.50001 M6.99999 0.500006 C4.39691 0.500006 2.2791 2.6178 2.2791 5.2209 C2.2791 5.46421 2.29832 5.70661 2.3367 5.94711 C1.49801 7.593 0.465119 10.5107 0.465119 14.8954 C0.465119 16.3316 1.63352 17.5 3.06981 17.5 C4.50602 17.5 5.67442 16.3316 5.67442 14.8954 C5.67442 12.7164 5.9919 11.0679 6.35421 9.8961 C6.56762 9.92641 6.78342 9.9419 6.99999 9.9419 C7.21672 9.9419 7.43239 9.92641 7.6459 9.8961 C8.00812 11.068 8.3256 12.7166 8.3256 14.8954 C8.3256 16.3316 9.494 17.5 10.9302 17.5 C12.3665 17.5 13.5349 16.3316 13.5349 14.8954 C13.5349 10.5108 12.502 7.593 11.6633 5.94701 C11.7017 5.70661 11.7209 5.46421 11.7209 5.2209 C11.7209 2.6178 9.60311 0.500006 6.99999 0.500006 C6.99999 0.500006 6.99999 0.500006 6.99999 0.500006 Z"/>
</svg>