<?xml version="1.0" encoding="utf-8"?>
<!DOCTYPE svg PUBLIC "-//W3C//DTD SVG 1.1//EN" "http://www.w3.org/Graphics/SVG/1.1/DTD/svg11.dtd">
<svg version="1.1" baseProfile="full" 
	xmlns="http://www.w3.org/2000/svg"
	xmlns:xlink="http://www.w3.org/1999/xlink"
	xmlns:ev="http://www.w3.org/2001/xml-events"
	width="24px" height="20px">
<path fill="rgb(43,47,49)" fill-rule="evenodd" d="M12 2.50001 C16.1421 2.50001 19.5 5.4381 19.5 9.06251 C19.5 9.4149 19.4592 9.7362 19.3981 10.0415 C20.4622 11.4921 21.375 13.5939 21.375 16.5625 C21.375 17.0802 20.9557 17.5 20.4375 17.5 C19.9193 17.5 19.5 17.0802 19.5 16.5625 C19.5 14.5864 19.0221 13.0884 18.3951 11.9591 C17.0773 13.2889 14.7101 13.75 12 13.75 C9.28982 13.75 6.92262 13.2889 5.6047 11.9589 C4.9779 13.0882 4.50002 14.5864 4.50002 16.5625 C4.50002 17.0802 4.0807 17.5 3.5625 17.5 C3.0443 17.5 2.62501 17.0802 2.62501 16.5625 C2.62501 13.5939 3.53779 11.4921 4.60191 10.0415 C4.54082 9.7362 4.50002 9.4149 4.50002 9.06251 C4.50002 5.4381 7.85791 2.50001 12 2.50001 M12 0.500002 C6.76172 0.500002 2.50002 4.3411 2.50002 9.06251 C2.50002 9.22511 2.50601 9.38761 2.5182 9.5511 C1.2614 11.5489 0.625003 13.9031 0.625003 16.5625 C0.625003 18.1822 1.94271 19.5 3.5625 19.5 C5.18231 19.5 6.49999 18.1822 6.49999 16.5625 C6.49999 15.9891 6.54881 15.4442 6.646 14.9303 C8.06462 15.4798 9.8392 15.75 12 15.75 C14.1606 15.75 15.9354 15.4798 17.354 14.9303 C17.4512 15.4442 17.5 15.989 17.5 16.5625 C17.5 18.1822 18.8177 19.5 20.4375 19.5 C22.0573 19.5 23.375 18.1822 23.375 16.5625 C23.375 13.9031 22.7386 11.5489 21.4818 9.5511 C21.494 9.38761 21.5 9.22511 21.5 9.06251 C21.5 4.3411 17.2383 0.500002 12 0.500002 C12 0.500002 12 0.500002 12 0.500002 Z"/>
</svg>