<?xml version="1.0" encoding="utf-8"?>
<!-- Generator: Adobe Illustrator 18.0.0, SVG Export Plug-In . SVG Version: 6.00 Build 0)  -->
<!DOCTYPE svg PUBLIC "-//W3C//DTD SVG 1.1//EN" "http://www.w3.org/Graphics/SVG/1.1/DTD/svg11.dtd">
<svg version="1.1" id="Layer_1" xmlns="http://www.w3.org/2000/svg" xmlns:xlink="http://www.w3.org/1999/xlink" x="0px" y="0px"
	 viewBox="0 0 40 40" enable-background="new 0 0 40 40" xml:space="preserve">
<path fill="#808080" d="M36,40H4c-2.2,0-4-1.8-4-4V4c0-2.2,1.8-4,4-4h32c2.2,0,4,1.8,4,4v32C40,38.2,38.2,40,36,40z"/>
<path fill="#B3B3B3" d="M36,38H4c-2.2,0-4-1.8-4-4V4c0-2.2,1.8-4,4-4h32c2.2,0,4,1.8,4,4v30C40,36.2,38.2,38,36,38z"/>
</svg>
