<?xml version="1.0" encoding="utf-8"?>
<!-- Generator: Adobe Illustrator 18.0.0, SVG Export Plug-In . SVG Version: 6.00 Build 0)  -->
<!DOCTYPE svg PUBLIC "-//W3C//DTD SVG 1.1//EN" "http://www.w3.org/Graphics/SVG/1.1/DTD/svg11.dtd">
<svg version="1.1" id="Layer_1" xmlns="http://www.w3.org/2000/svg" xmlns:xlink="http://www.w3.org/1999/xlink" x="0px" y="0px"
	 viewBox="0 0 40 40" enable-background="new 0 0 40 40" xml:space="preserve">
<g>
	<path fill="#EDE65A" d="M36,40H4c-2.2,0-4-1.8-4-4V4c0-2.2,1.8-4,4-4h32c2.2,0,4,1.8,4,4v32C40,38.2,38.2,40,36,40z"/>
	<g opacity="0.1">
		<g>
			<defs>
				<path id="SVGID_1_" d="M36,40H4c-2.2,0-4-1.8-4-4V4c0-2.2,1.8-4,4-4h32c2.2,0,4,1.8,4,4v32C40,38.2,38.2,40,36,40z"/>
			</defs>
			<clipPath id="SVGID_2_">
				<use xlink:href="#SVGID_1_"  overflow="visible"/>
			</clipPath>
			<g clip-path="url(#SVGID_2_)">
				<rect x="36.4" y="-4.7" fill="none" width="6" height="6"/>
				<path d="M41.8-4c0,0-0.2,1.9-1.5,3.2c-1.3,1.3-3.2,1.5-3.2,1.5s0.2-1.9,1.5-3.2C39.9-3.8,41.8-4,41.8-4z"/>
			</g>
			<g clip-path="url(#SVGID_2_)">
				<rect x="36.4" y="1.3" fill="none" width="6" height="6"/>
				<path d="M41.8,2c0,0-0.2,1.9-1.5,3.2c-1.3,1.3-3.2,1.5-3.2,1.5s0.2-1.9,1.5-3.2C39.9,2.2,41.8,2,41.8,2z"/>
			</g>
			<g clip-path="url(#SVGID_2_)">
				<rect x="36.4" y="7.3" fill="none" width="6" height="6"/>
				<path d="M41.8,8c0,0-0.2,1.9-1.5,3.2c-1.3,1.3-3.2,1.5-3.2,1.5s0.2-1.9,1.5-3.2C39.9,8.2,41.8,8,41.8,8z"/>
			</g>
			<g clip-path="url(#SVGID_2_)">
				<rect x="36.4" y="13.3" fill="none" width="6" height="6"/>
				<path d="M41.8,14c0,0-0.2,1.9-1.5,3.2c-1.3,1.3-3.2,1.5-3.2,1.5s0.2-1.9,1.5-3.2C39.9,14.2,41.8,14,41.8,14z"/>
			</g>
			<g clip-path="url(#SVGID_2_)">
				<rect x="36.4" y="19.3" fill="none" width="6" height="6"/>
				<path d="M41.8,20c0,0-0.2,1.9-1.5,3.2c-1.3,1.3-3.2,1.5-3.2,1.5s0.2-1.9,1.5-3.2C39.9,20.2,41.8,20,41.8,20z"/>
			</g>
			<g clip-path="url(#SVGID_2_)">
				<rect x="36.4" y="25.3" fill="none" width="6" height="6"/>
				<path d="M41.8,26c0,0-0.2,1.9-1.5,3.2c-1.3,1.3-3.2,1.5-3.2,1.5s0.2-1.9,1.5-3.2C39.9,26.2,41.8,26,41.8,26z"/>
			</g>
			<g clip-path="url(#SVGID_2_)">
				<rect x="36.4" y="31.3" fill="none" width="6" height="6"/>
				<path d="M41.8,32c0,0-0.2,1.9-1.5,3.2c-1.3,1.3-3.2,1.5-3.2,1.5s0.2-1.9,1.5-3.2C39.9,32.2,41.8,32,41.8,32z"/>
			</g>
			<g clip-path="url(#SVGID_2_)">
				<rect x="36.4" y="37.3" fill="none" width="6" height="6"/>
				<path d="M41.8,38c0,0-0.2,1.9-1.5,3.2c-1.3,1.3-3.2,1.5-3.2,1.5s0.2-1.9,1.5-3.2C39.9,38.2,41.8,38,41.8,38z"/>
			</g>
			<g clip-path="url(#SVGID_2_)">
				<rect x="30.4" y="-4.7" fill="none" width="6" height="6"/>
				<path d="M35.8-4c0,0-0.2,1.9-1.5,3.2c-1.3,1.3-3.2,1.5-3.2,1.5s0.2-1.9,1.5-3.2C33.9-3.8,35.8-4,35.8-4z"/>
			</g>
			<g clip-path="url(#SVGID_2_)">
				<rect x="30.4" y="1.3" fill="none" width="6" height="6"/>
				<path d="M35.8,2c0,0-0.2,1.9-1.5,3.2c-1.3,1.3-3.2,1.5-3.2,1.5s0.2-1.9,1.5-3.2C33.9,2.2,35.8,2,35.8,2z"/>
			</g>
			<g clip-path="url(#SVGID_2_)">
				<rect x="30.4" y="7.3" fill="none" width="6" height="6"/>
				<path d="M35.8,8c0,0-0.2,1.9-1.5,3.2c-1.3,1.3-3.2,1.5-3.2,1.5s0.2-1.9,1.5-3.2C33.9,8.2,35.8,8,35.8,8z"/>
			</g>
			<g clip-path="url(#SVGID_2_)">
				<rect x="30.4" y="13.3" fill="none" width="6" height="6"/>
				<path d="M35.8,14c0,0-0.2,1.9-1.5,3.2c-1.3,1.3-3.2,1.5-3.2,1.5s0.2-1.9,1.5-3.2C33.9,14.2,35.8,14,35.8,14z"/>
			</g>
			<g clip-path="url(#SVGID_2_)">
				<rect x="30.4" y="19.3" fill="none" width="6" height="6"/>
				<path d="M35.8,20c0,0-0.2,1.9-1.5,3.2c-1.3,1.3-3.2,1.5-3.2,1.5s0.2-1.9,1.5-3.2C33.9,20.2,35.8,20,35.8,20z"/>
			</g>
			<g clip-path="url(#SVGID_2_)">
				<rect x="30.4" y="25.3" fill="none" width="6" height="6"/>
				<path d="M35.8,26c0,0-0.2,1.9-1.5,3.2c-1.3,1.3-3.2,1.5-3.2,1.5s0.2-1.9,1.5-3.2C33.9,26.2,35.8,26,35.8,26z"/>
			</g>
			<g clip-path="url(#SVGID_2_)">
				<rect x="30.4" y="31.3" fill="none" width="6" height="6"/>
				<path d="M35.8,32c0,0-0.2,1.9-1.5,3.2c-1.3,1.3-3.2,1.5-3.2,1.5s0.2-1.9,1.5-3.2C33.9,32.2,35.8,32,35.8,32z"/>
			</g>
			<g clip-path="url(#SVGID_2_)">
				<rect x="30.4" y="37.3" fill="none" width="6" height="6"/>
				<path d="M35.8,38c0,0-0.2,1.9-1.5,3.2c-1.3,1.3-3.2,1.5-3.2,1.5s0.2-1.9,1.5-3.2C33.9,38.2,35.8,38,35.8,38z"/>
			</g>
			<g clip-path="url(#SVGID_2_)">
				<rect x="24.4" y="-4.7" fill="none" width="6" height="6"/>
				<path d="M29.8-4c0,0-0.2,1.9-1.5,3.2c-1.3,1.3-3.2,1.5-3.2,1.5s0.2-1.9,1.5-3.2S29.8-4,29.8-4z"/>
			</g>
			<g clip-path="url(#SVGID_2_)">
				<rect x="24.4" y="1.3" fill="none" width="6" height="6"/>
				<path d="M29.8,2c0,0-0.2,1.9-1.5,3.2c-1.3,1.3-3.2,1.5-3.2,1.5s0.2-1.9,1.5-3.2S29.8,2,29.8,2z"/>
			</g>
			<g clip-path="url(#SVGID_2_)">
				<rect x="24.4" y="7.3" fill="none" width="6" height="6"/>
				<path d="M29.8,8c0,0-0.2,1.9-1.5,3.2c-1.3,1.3-3.2,1.5-3.2,1.5s0.2-1.9,1.5-3.2S29.8,8,29.8,8z"/>
			</g>
			<g clip-path="url(#SVGID_2_)">
				<rect x="24.4" y="13.3" fill="none" width="6" height="6"/>
				<path d="M29.8,14c0,0-0.2,1.9-1.5,3.2c-1.3,1.3-3.2,1.5-3.2,1.5s0.2-1.9,1.5-3.2S29.8,14,29.8,14z"/>
			</g>
			<g clip-path="url(#SVGID_2_)">
				<rect x="24.4" y="19.3" fill="none" width="6" height="6"/>
				<path d="M29.8,20c0,0-0.2,1.9-1.5,3.2c-1.3,1.3-3.2,1.5-3.2,1.5s0.2-1.9,1.5-3.2C27.9,20.2,29.8,20,29.8,20z"/>
			</g>
			<g clip-path="url(#SVGID_2_)">
				<rect x="24.4" y="25.3" fill="none" width="6" height="6"/>
				<path d="M29.8,26c0,0-0.2,1.9-1.5,3.2c-1.3,1.3-3.2,1.5-3.2,1.5s0.2-1.9,1.5-3.2C27.9,26.2,29.8,26,29.8,26z"/>
			</g>
			<g clip-path="url(#SVGID_2_)">
				<rect x="24.4" y="31.3" fill="none" width="6" height="6"/>
				<path d="M29.8,32c0,0-0.2,1.9-1.5,3.2c-1.3,1.3-3.2,1.5-3.2,1.5s0.2-1.9,1.5-3.2S29.8,32,29.8,32z"/>
			</g>
			<g clip-path="url(#SVGID_2_)">
				<rect x="24.4" y="37.3" fill="none" width="6" height="6"/>
				<path d="M29.8,38c0,0-0.2,1.9-1.5,3.2c-1.3,1.3-3.2,1.5-3.2,1.5s0.2-1.9,1.5-3.2S29.8,38,29.8,38z"/>
			</g>
			<g clip-path="url(#SVGID_2_)">
				<rect x="18.4" y="-4.7" fill="none" width="6" height="6"/>
				<path d="M23.8-4c0,0-0.2,1.9-1.5,3.2c-1.3,1.3-3.2,1.5-3.2,1.5s0.2-1.9,1.5-3.2S23.8-4,23.8-4z"/>
			</g>
			<g clip-path="url(#SVGID_2_)">
				<rect x="18.4" y="1.3" fill="none" width="6" height="6"/>
				<path d="M23.8,2c0,0-0.2,1.9-1.5,3.2c-1.3,1.3-3.2,1.5-3.2,1.5s0.2-1.9,1.5-3.2S23.8,2,23.8,2z"/>
			</g>
			<g clip-path="url(#SVGID_2_)">
				<rect x="18.4" y="7.3" fill="none" width="6" height="6"/>
				<path d="M23.8,8c0,0-0.2,1.9-1.5,3.2c-1.3,1.3-3.2,1.5-3.2,1.5s0.2-1.9,1.5-3.2S23.8,8,23.8,8z"/>
			</g>
			<g clip-path="url(#SVGID_2_)">
				<rect x="18.4" y="13.3" fill="none" width="6" height="6"/>
				<path d="M23.8,14c0,0-0.2,1.9-1.5,3.2c-1.3,1.3-3.2,1.5-3.2,1.5s0.2-1.9,1.5-3.2S23.8,14,23.8,14z"/>
			</g>
			<g clip-path="url(#SVGID_2_)">
				<rect x="18.4" y="19.3" fill="none" width="6" height="6"/>
				<path d="M23.8,20c0,0-0.2,1.9-1.5,3.2c-1.3,1.3-3.2,1.5-3.2,1.5s0.2-1.9,1.5-3.2C21.9,20.2,23.8,20,23.8,20z"/>
			</g>
			<g clip-path="url(#SVGID_2_)">
				<rect x="18.4" y="25.3" fill="none" width="6" height="6"/>
				<path d="M23.8,26c0,0-0.2,1.9-1.5,3.2c-1.3,1.3-3.2,1.5-3.2,1.5s0.2-1.9,1.5-3.2C21.9,26.2,23.8,26,23.8,26z"/>
			</g>
			<g clip-path="url(#SVGID_2_)">
				<rect x="18.4" y="31.3" fill="none" width="6" height="6"/>
				<path d="M23.8,32c0,0-0.2,1.9-1.5,3.2c-1.3,1.3-3.2,1.5-3.2,1.5s0.2-1.9,1.5-3.2S23.8,32,23.8,32z"/>
			</g>
			<g clip-path="url(#SVGID_2_)">
				<rect x="18.4" y="37.3" fill="none" width="6" height="6"/>
				<path d="M23.8,38c0,0-0.2,1.9-1.5,3.2c-1.3,1.3-3.2,1.5-3.2,1.5s0.2-1.9,1.5-3.2S23.8,38,23.8,38z"/>
			</g>
			<g clip-path="url(#SVGID_2_)">
				<rect x="12.4" y="-4.7" fill="none" width="6" height="6"/>
				<path d="M17.8-4c0,0-0.2,1.9-1.5,3.2c-1.3,1.3-3.2,1.5-3.2,1.5s0.2-1.9,1.5-3.2S17.8-4,17.8-4z"/>
			</g>
			<g clip-path="url(#SVGID_2_)">
				<rect x="12.4" y="1.3" fill="none" width="6" height="6"/>
				<path d="M17.8,2c0,0-0.2,1.9-1.5,3.2c-1.3,1.3-3.2,1.5-3.2,1.5s0.2-1.9,1.5-3.2S17.8,2,17.8,2z"/>
			</g>
			<g clip-path="url(#SVGID_2_)">
				<rect x="12.4" y="7.3" fill="none" width="6" height="6"/>
				<path d="M17.8,8c0,0-0.2,1.9-1.5,3.2c-1.3,1.3-3.2,1.5-3.2,1.5s0.2-1.9,1.5-3.2S17.8,8,17.8,8z"/>
			</g>
			<g clip-path="url(#SVGID_2_)">
				<rect x="12.4" y="13.3" fill="none" width="6" height="6"/>
				<path d="M17.8,14c0,0-0.2,1.9-1.5,3.2c-1.3,1.3-3.2,1.5-3.2,1.5s0.2-1.9,1.5-3.2S17.8,14,17.8,14z"/>
			</g>
			<g clip-path="url(#SVGID_2_)">
				<rect x="12.4" y="19.3" fill="none" width="6" height="6"/>
				<path d="M17.8,20c0,0-0.2,1.9-1.5,3.2c-1.3,1.3-3.2,1.5-3.2,1.5s0.2-1.9,1.5-3.2C15.9,20.2,17.8,20,17.8,20z"/>
			</g>
			<g clip-path="url(#SVGID_2_)">
				<rect x="12.4" y="25.3" fill="none" width="6" height="6"/>
				<path d="M17.8,26c0,0-0.2,1.9-1.5,3.2c-1.3,1.3-3.2,1.5-3.2,1.5s0.2-1.9,1.5-3.2C15.9,26.2,17.8,26,17.8,26z"/>
			</g>
			<g clip-path="url(#SVGID_2_)">
				<rect x="12.4" y="31.3" fill="none" width="6" height="6"/>
				<path d="M17.8,32c0,0-0.2,1.9-1.5,3.2c-1.3,1.3-3.2,1.5-3.2,1.5s0.2-1.9,1.5-3.2S17.8,32,17.8,32z"/>
			</g>
			<g clip-path="url(#SVGID_2_)">
				<rect x="12.4" y="37.3" fill="none" width="6" height="6"/>
				<path d="M17.8,38c0,0-0.2,1.9-1.5,3.2c-1.3,1.3-3.2,1.5-3.2,1.5s0.2-1.9,1.5-3.2S17.8,38,17.8,38z"/>
			</g>
			<g clip-path="url(#SVGID_2_)">
				<rect x="6.4" y="-4.7" fill="none" width="6" height="6"/>
				<path d="M11.8-4c0,0-0.2,1.9-1.5,3.2S7.1,0.7,7.1,0.7s0.2-1.9,1.5-3.2S11.8-4,11.8-4z"/>
			</g>
			<g clip-path="url(#SVGID_2_)">
				<rect x="6.4" y="1.3" fill="none" width="6" height="6"/>
				<path d="M11.8,2c0,0-0.2,1.9-1.5,3.2S7.1,6.7,7.1,6.7s0.2-1.9,1.5-3.2S11.8,2,11.8,2z"/>
			</g>
			<g clip-path="url(#SVGID_2_)">
				<rect x="6.4" y="7.3" fill="none" width="6" height="6"/>
				<path d="M11.8,8c0,0-0.2,1.9-1.5,3.2s-3.2,1.5-3.2,1.5s0.2-1.9,1.5-3.2S11.8,8,11.8,8z"/>
			</g>
			<g clip-path="url(#SVGID_2_)">
				<rect x="6.4" y="13.3" fill="none" width="6" height="6"/>
				<path d="M11.8,14c0,0-0.2,1.9-1.5,3.2c-1.3,1.3-3.2,1.5-3.2,1.5s0.2-1.9,1.5-3.2S11.8,14,11.8,14z"/>
			</g>
			<g clip-path="url(#SVGID_2_)">
				<rect x="6.4" y="19.3" fill="none" width="6" height="6"/>
				<path d="M11.8,20c0,0-0.2,1.9-1.5,3.2c-1.3,1.3-3.2,1.5-3.2,1.5s0.2-1.9,1.5-3.2C9.9,20.2,11.8,20,11.8,20z"/>
			</g>
			<g clip-path="url(#SVGID_2_)">
				<rect x="6.4" y="25.3" fill="none" width="6" height="6"/>
				<path d="M11.8,26c0,0-0.2,1.9-1.5,3.2c-1.3,1.3-3.2,1.5-3.2,1.5s0.2-1.9,1.5-3.2C9.9,26.2,11.8,26,11.8,26z"/>
			</g>
			<g clip-path="url(#SVGID_2_)">
				<rect x="6.4" y="31.3" fill="none" width="6" height="6"/>
				<path d="M11.8,32c0,0-0.2,1.9-1.5,3.2c-1.3,1.3-3.2,1.5-3.2,1.5s0.2-1.9,1.5-3.2S11.8,32,11.8,32z"/>
			</g>
			<g clip-path="url(#SVGID_2_)">
				<rect x="6.4" y="37.3" fill="none" width="6" height="6"/>
				<path d="M11.8,38c0,0-0.2,1.9-1.5,3.2c-1.3,1.3-3.2,1.5-3.2,1.5s0.2-1.9,1.5-3.2S11.8,38,11.8,38z"/>
			</g>
			<g clip-path="url(#SVGID_2_)">
				<rect x="0.4" y="-4.7" fill="none" width="6" height="6"/>
				<path d="M5.8-4c0,0-0.2,1.9-1.5,3.2S1.1,0.7,1.1,0.7s0.2-1.9,1.5-3.2S5.8-4,5.8-4z"/>
			</g>
			<g clip-path="url(#SVGID_2_)">
				<rect x="0.4" y="1.3" fill="none" width="6" height="6"/>
				<path d="M5.8,2c0,0-0.2,1.9-1.5,3.2S1.1,6.7,1.1,6.7s0.2-1.9,1.5-3.2S5.8,2,5.8,2z"/>
			</g>
			<g clip-path="url(#SVGID_2_)">
				<rect x="0.4" y="7.3" fill="none" width="6" height="6"/>
				<path d="M5.8,8c0,0-0.2,1.9-1.5,3.2s-3.2,1.5-3.2,1.5s0.2-1.9,1.5-3.2S5.8,8,5.8,8z"/>
			</g>
			<g clip-path="url(#SVGID_2_)">
				<rect x="0.4" y="13.3" fill="none" width="6" height="6"/>
				<path d="M5.8,14c0,0-0.2,1.9-1.5,3.2c-1.3,1.3-3.2,1.5-3.2,1.5s0.2-1.9,1.5-3.2S5.8,14,5.8,14z"/>
			</g>
			<g clip-path="url(#SVGID_2_)">
				<rect x="0.4" y="19.3" fill="none" width="6" height="6"/>
				<path d="M5.8,20c0,0-0.2,1.9-1.5,3.2c-1.3,1.3-3.2,1.5-3.2,1.5s0.2-1.9,1.5-3.2C3.9,20.2,5.8,20,5.8,20z"/>
			</g>
			<g clip-path="url(#SVGID_2_)">
				<rect x="0.4" y="25.3" fill="none" width="6" height="6"/>
				<path d="M5.8,26c0,0-0.2,1.9-1.5,3.2c-1.3,1.3-3.2,1.5-3.2,1.5s0.2-1.9,1.5-3.2C3.9,26.2,5.8,26,5.8,26z"/>
			</g>
			<g clip-path="url(#SVGID_2_)">
				<rect x="0.4" y="31.3" fill="none" width="6" height="6"/>
				<path d="M5.8,32c0,0-0.2,1.9-1.5,3.2c-1.3,1.3-3.2,1.5-3.2,1.5s0.2-1.9,1.5-3.2S5.8,32,5.8,32z"/>
			</g>
			<g clip-path="url(#SVGID_2_)">
				<rect x="0.4" y="37.3" fill="none" width="6" height="6"/>
				<path d="M5.8,38c0,0-0.2,1.9-1.5,3.2c-1.3,1.3-3.2,1.5-3.2,1.5s0.2-1.9,1.5-3.2S5.8,38,5.8,38z"/>
			</g>
			<g clip-path="url(#SVGID_2_)">
				<rect x="-5.6" y="-4.7" fill="none" width="6" height="6"/>
				<path d="M-0.2-4c0,0-0.2,1.9-1.5,3.2s-3.2,1.5-3.2,1.5s0.2-1.9,1.5-3.2S-0.2-4-0.2-4z"/>
			</g>
			<g clip-path="url(#SVGID_2_)">
				<rect x="-5.6" y="1.3" fill="none" width="6" height="6"/>
				<path d="M-0.2,2c0,0-0.2,1.9-1.5,3.2s-3.2,1.5-3.2,1.5s0.2-1.9,1.5-3.2S-0.2,2-0.2,2z"/>
			</g>
			<g clip-path="url(#SVGID_2_)">
				<rect x="-5.6" y="7.3" fill="none" width="6" height="6"/>
				<path d="M-0.2,8c0,0-0.2,1.9-1.5,3.2s-3.2,1.5-3.2,1.5s0.2-1.9,1.5-3.2S-0.2,8-0.2,8z"/>
			</g>
			<g clip-path="url(#SVGID_2_)">
				<rect x="-5.6" y="13.3" fill="none" width="6" height="6"/>
				<path d="M-0.2,14c0,0-0.2,1.9-1.5,3.2c-1.3,1.3-3.2,1.5-3.2,1.5s0.2-1.9,1.5-3.2S-0.2,14-0.2,14z"/>
			</g>
			<g clip-path="url(#SVGID_2_)">
				<rect x="-5.6" y="19.3" fill="none" width="6" height="6"/>
				<path d="M-0.2,20c0,0-0.2,1.9-1.5,3.2c-1.3,1.3-3.2,1.5-3.2,1.5s0.2-1.9,1.5-3.2C-2.1,20.2-0.2,20-0.2,20z"/>
			</g>
			<g clip-path="url(#SVGID_2_)">
				<rect x="-5.6" y="25.3" fill="none" width="6" height="6"/>
				<path d="M-0.2,26c0,0-0.2,1.9-1.5,3.2c-1.3,1.3-3.2,1.5-3.2,1.5s0.2-1.9,1.5-3.2C-2.1,26.2-0.2,26-0.2,26z"/>
			</g>
			<g clip-path="url(#SVGID_2_)">
				<rect x="-5.6" y="31.3" fill="none" width="6" height="6"/>
				<path d="M-0.2,32c0,0-0.2,1.9-1.5,3.2c-1.3,1.3-3.2,1.5-3.2,1.5s0.2-1.9,1.5-3.2S-0.2,32-0.2,32z"/>
			</g>
			<g clip-path="url(#SVGID_2_)">
				<rect x="-5.6" y="37.3" fill="none" width="6" height="6"/>
				<path d="M-0.2,38c0,0-0.2,1.9-1.5,3.2c-1.3,1.3-3.2,1.5-3.2,1.5s0.2-1.9,1.5-3.2S-0.2,38-0.2,38z"/>
			</g>
		</g>
	</g>
</g>
</svg>
