<?xml version="1.0" encoding="utf-8"?>
<!-- Generator: Adobe Illustrator 18.0.0, SVG Export Plug-In . SVG Version: 6.00 Build 0)  -->
<!DOCTYPE svg PUBLIC "-//W3C//DTD SVG 1.1//EN" "http://www.w3.org/Graphics/SVG/1.1/DTD/svg11.dtd">
<svg version="1.1" id="Layer_1" xmlns="http://www.w3.org/2000/svg" xmlns:xlink="http://www.w3.org/1999/xlink" x="0px" y="0px"
	 viewBox="0 0 40 40" enable-background="new 0 0 40 40" xml:space="preserve">
<path fill="#B3B3B3" d="M36,40H4c-2.2,0-4-1.8-4-4V4c0-2.2,1.8-4,4-4h32c2.2,0,4,1.8,4,4v32C40,38.2,38.2,40,36,40z"/>
<g>
	<defs>
		<path id="SVGID_1_" d="M36,40H4c-2.2,0-4-1.8-4-4V4c0-2.2,1.8-4,4-4h32c2.2,0,4,1.8,4,4v32C40,38.2,38.2,40,36,40z"/>
	</defs>
	<clipPath id="SVGID_2_">
		<use xlink:href="#SVGID_1_"  overflow="visible"/>
	</clipPath>
	<g clip-path="url(#SVGID_2_)">
		<g>
			<path d="M-7.1,42.4c-1.7,0-3-1.3-3-3c0-4.3,2.3-10.2,7.6-13.7c3.5-2.3,9.4-4.4,18-0.9c4,1.6,7.2,1.9,9.2,0.7
				c2.3-1.3,2.7-4,2.8-4.1l0.1-0.3c0,0,0.9-3.7-1-5.9c-1.9-2.2-6-2.3-9.2-2c-1.6,0.2-3.1-1-3.3-2.7c-0.2-1.6,1-3.1,2.7-3.3
				c6.7-0.7,11.5,0.7,14.4,4.1c3.6,4.3,2.4,10.1,2.2,11.2c-0.2,1-1.3,5.7-5.6,8.2c-3.8,2.2-8.6,2-14.5-0.3c-4.9-2-9.2-1.9-12.4,0.3
				c-3.2,2.2-4.9,6-4.9,8.7C-4.1,41-5.5,42.4-7.1,42.4z"/>
		</g>
		<g>
			<path fill="#E6E6E6" d="M-3.9,39.4h-6.5c0-2.5,0.8-5.3,2.1-7.8l5.7,3.1C-3.4,36.3-3.9,38-3.9,39.4z M24.6,32.1l-1.4-6.3
				c1.4-0.3,2.4-1,3.1-2.2l5.5,3.5C30.1,29.7,27.6,31.5,24.6,32.1z M16.6,31.8c-1.1-0.3-2.3-0.7-3.5-1.2c-0.9-0.4-1.8-0.7-2.6-0.9
				l1.6-6.3c1.1,0.3,2.3,0.7,3.4,1.1c1,0.4,1.9,0.7,2.8,0.9L16.6,31.8z M0.7,31l-3.8-5.3c2.2-1.6,4.7-2.5,7.5-2.9l0.8,6.5
				C3.6,29.5,2,30,0.7,31z M33.9,19.2l-6.5,0l0-0.1c0-1.6-0.4-2.9-1.2-3.7l4.8-4.4c1.9,2.1,2.9,4.9,2.9,8.1L33.9,19.2z M22.4,13.5
				c-0.8-0.1-1.6-0.2-2.6-0.2c0,0,0,0,0,0c-0.8,0-1.6,0-2.5,0.1L16.7,7c1.1-0.1,2.1-0.2,3.1-0.2c1.3,0,2.5,0.1,3.6,0.3L22.4,13.5z"
				/>
		</g>
	</g>
</g>
</svg>
