<?xml version="1.0" encoding="utf-8"?>
<!-- Generator: Adobe Illustrator 18.0.0, SVG Export Plug-In . SVG Version: 6.00 Build 0)  -->
<!DOCTYPE svg PUBLIC "-//W3C//DTD SVG 1.1//EN" "http://www.w3.org/Graphics/SVG/1.1/DTD/svg11.dtd">
<svg version="1.1" id="Layer_1" xmlns="http://www.w3.org/2000/svg" xmlns:xlink="http://www.w3.org/1999/xlink" x="0px" y="0px"
	 viewBox="0 0 40 40" enable-background="new 0 0 40 40" xml:space="preserve">
<pattern  width="6" height="6" patternUnits="userSpaceOnUse" id="New_Pattern" viewBox="0 -6 6 6" overflow="visible">
	<g>
		<polygon fill="none" points="0,-6 6,-6 6,0 0,0 		"/>
		<path fill="#7F412E" d="M5.4-5.4c0,0-0.2,1.9-1.5,3.2S0.6-0.6,0.6-0.6s0.2-1.9,1.5-3.2S5.4-5.4,5.4-5.4z"/>
	</g>
</pattern>
<path fill="#A83E2C" d="M36,40H4c-2.2,0-4-1.8-4-4V4c0-2.2,1.8-4,4-4h32c2.2,0,4,1.8,4,4v32C40,38.2,38.2,40,36,40z"/>
<pattern  id="SVGID_1_" xlink:href="#New_Pattern" patternTransform="matrix(1 0 0 1 -3.5626 3.3039)">
</pattern>
<path fill="url(#SVGID_1_)" d="M36,40H4c-2.2,0-4-1.8-4-4V4c0-2.2,1.8-4,4-4h32c2.2,0,4,1.8,4,4v32C40,38.2,38.2,40,36,40z"/>
</svg>
