<?xml version="1.0" encoding="utf-8"?>
<!DOCTYPE svg PUBLIC "-//W3C//DTD SVG 1.1//EN" "http://www.w3.org/Graphics/SVG/1.1/DTD/svg11.dtd">
<svg version="1.1" baseProfile="full" 
	xmlns="http://www.w3.org/2000/svg"
	xmlns:xlink="http://www.w3.org/1999/xlink"
	xmlns:ev="http://www.w3.org/2001/xml-events"
	width="29px" height="29px">
<path fill="rgb(43,47,49)" fill-rule="evenodd" d="M28.9982 28.9614 C28.9982 28.9614 26.9944 28.9614 26.9944 28.9614 C26.9944 24.8986 25.4534 20.8874 22.6542 17.8636 C22.6542 17.8636 22.1571 17.3158 22.1571 17.3158 C22.1571 17.3158 22.5074 16.6646 22.5074 16.6646 C25.1354 11.8147 24.7822 7.78019 24.1287 5.40651 C20.5594 13.066 11.0589 13.0099 10.9582 13.0099 C10.9582 13.0099 0.00195838 13.0099 0.00195838 13.0099 C0.00195838 13.0099 0.00195838 10.9785 0.00195838 10.9785 C0.00195838 10.9785 11.0041 10.9785 11.0041 10.9785 C11.4543 10.9938 21.0407 11.0156 23.0729 2.31921 C23.0729 2.31921 23.6159 -0.00725053 23.6159 -0.00725053 C23.6159 -0.00725053 24.8908 2.00433 24.8908 2.00433 C25.0591 2.27015 28.871 8.4868 24.5982 17.0156 C27.4405 20.3388 28.9982 24.8986 28.9982 28.9614 Z"/>
</svg>