<?xml version="1.0" encoding="utf-8"?>
<!DOCTYPE svg PUBLIC "-//W3C//DTD SVG 1.1//EN" "http://www.w3.org/Graphics/SVG/1.1/DTD/svg11.dtd">
<svg version="1.1" baseProfile="full" 
	xmlns="http://www.w3.org/2000/svg"
	xmlns:xlink="http://www.w3.org/1999/xlink"
	xmlns:ev="http://www.w3.org/2001/xml-events"
	width="33px" height="35px">
<path fill="rgb(43,47,49)" fill-rule="evenodd" d="M28.8554 34.9921 C28.8554 34.9921 26.8609 34.9921 26.8609 34.9921 C26.8609 31.9791 26.2085 29.7187 24.9736 27.4026 C24.9736 27.4026 24.5656 26.6269 24.5656 26.6269 C24.5656 26.6269 25.259 26.105 25.259 26.105 C27.3567 24.5416 28.9236 22.4039 29.7893 19.9272 C30.9414 16.6302 30.7505 13.0775 29.2518 9.92512 C27.7521 6.77223 25.1226 4.39612 21.8495 3.23528 C18.5755 2.07303 15.0482 2.26546 11.9203 3.77632 C8.7893 5.28688 6.43068 7.93388 5.27772 11.2305 C5.00395 12.0141 5.41403 12.8762 6.19205 13.1518 C6.96918 13.4289 7.8262 13.0154 8.09982 12.2312 C8.98703 9.69442 10.8023 7.65617 13.2115 6.49292 C15.6208 5.33017 18.334 5.18162 20.8562 6.07611 C23.3766 6.9706 25.3992 8.79883 26.5542 11.2254 C27.7082 13.6524 27.8553 16.387 26.9672 18.9244 C26.2951 20.8472 25.0837 22.4955 23.4632 23.6902 C23.4632 23.6902 22.7748 24.1977 22.7748 24.1977 C22.7748 24.1977 22.171 23.5915 22.171 23.5915 C19.1676 20.5805 15.1807 18.9224 10.9454 18.9224 C10.9454 18.9224 -0.0054593 18.9224 -0.0054593 18.9224 C-0.0054593 18.9224 -0.0054593 16.9136 -0.0054593 16.9136 C-0.0054593 16.9136 10.9454 16.9136 10.9454 16.9136 C15.4105 16.9136 19.6301 18.5517 22.9247 21.5446 C23.9005 20.654 24.6406 19.5314 25.0856 18.2569 C25.7965 16.2252 25.6787 14.0365 24.7545 12.0934 C23.8313 10.1509 22.2108 8.68654 20.1941 7.97103 C18.1762 7.25554 16.0017 7.37273 14.0743 8.30449 C12.1442 9.23583 10.6913 10.8674 9.98127 12.8986 C9.34055 14.7265 7.34224 15.6896 5.5299 15.0467 C3.71468 14.4032 2.75734 12.392 3.39615 10.5638 C4.72643 6.76018 7.44736 3.70642 11.0584 1.96446 C14.6665 0.222098 18.7352 0.000845557 22.5118 1.33976 C26.2884 2.67897 29.3199 5.41895 31.0505 9.05585 C32.779 12.6917 33.0001 16.7891 31.6707 20.5922 C30.7651 23.1802 29.1972 25.465 27.1113 27.2088 C28.2546 29.6231 28.8554 31.9791 28.8554 34.9921 Z"/>
</svg>