<?xml version="1.0" encoding="utf-8"?>
<!DOCTYPE svg PUBLIC "-//W3C//DTD SVG 1.1//EN" "http://www.w3.org/Graphics/SVG/1.1/DTD/svg11.dtd">
<svg version="1.1" baseProfile="full" 
	xmlns="http://www.w3.org/2000/svg"
	xmlns:xlink="http://www.w3.org/1999/xlink"
	xmlns:ev="http://www.w3.org/2001/xml-events"
	width="32px" height="33px">
<path fill="rgb(43,47,49)" fill-rule="evenodd" d="M28.9414 33.0009 C28.9414 33.0009 26.9414 33.0009 26.9414 33.0009 C26.9414 31.0022 26.4639 28.515 25.5215 26.4299 C25.5215 26.4299 24.8682 24.9751 24.8682 24.9751 C24.8682 24.9751 26.5498 25.01 26.5498 25.01 C27.3545 24.9838 28 24.3195 28 23.5095 C28 23.0484 27.7881 22.7138 27.6113 22.5153 C27.6113 22.5153 26.6289 21.4167 26.6289 21.4167 C26.6289 21.4167 28.0127 20.9099 28.0127 20.9099 C28.6035 20.6937 29 20.1309 29 19.5098 C29 19.0486 28.7881 18.7153 28.6113 18.5166 C28.6113 18.5166 27.6289 17.4187 27.6289 17.4187 C27.6289 17.4187 29.0127 16.9122 29.0127 16.9122 C29.6035 16.696 30 16.1334 30 15.5122 C30 15.0399 29.7773 14.6035 29.3896 14.3152 C29.3896 14.3152 28.3115 13.5134 28.3115 13.5134 C28.3115 13.5134 29.3896 12.7118 29.3896 12.7118 C29.7773 12.4233 30 11.9871 30 11.5147 C30 11.0423 29.7773 10.6061 29.3896 10.3177 C29.3896 10.3177 28.3115 9.51601 28.3115 9.51601 C28.3115 9.51601 29.3896 8.71433 29.3896 8.71433 C29.7773 8.42592 30 7.98969 30 7.51729 C30 6.64186 29.2021 5.91333 28.3584 6.03485 C28.3584 6.03485 27.5498 6.14908 27.5498 6.14908 C27.5498 6.14908 27.2207 5.38876 27.2207 5.38876 C27.21 5.36048 27.2002 5.33241 27.1895 5.30462 C23.1738 15.7891 11.9268 17.0112 8.3682 17.0112 C8.3682 17.0112 9.99581e-006 17.0112 9.99581e-006 17.0112 C9.99581e-006 17.0112 9.99581e-006 15.0125 9.99581e-006 15.0125 C9.99581e-006 15.0125 8.3438 15.0125 8.3438 15.0125 C11.7861 14.9275 23.3096 13.7579 26.0273 2.29016 C26.0273 2.29016 26.5693 -0.000374336 26.5693 -0.000374336 C26.5693 -0.000374336 27.8418 1.98085 27.8418 1.98085 C27.8643 2.01593 28.3281 2.74446 28.8457 4.03663 C30.6143 4.21083 32 5.70546 32 7.51729 C32 8.24682 31.7773 8.93779 31.3682 9.51601 C31.7773 10.0942 32 10.7852 32 11.5147 C32 12.2443 31.7773 12.9352 31.3682 13.5134 C31.7773 14.0917 32 14.7826 32 15.5122 C32 16.5618 31.5195 17.5392 30.7363 18.1916 C30.9092 18.6079 31 19.0553 31 19.5096 C31 20.5592 30.5195 21.5366 29.7363 22.1891 C29.9092 22.6053 30 23.0527 30 23.507 C30 24.969 29.0977 26.2441 27.8213 26.7661 C28.5654 28.7639 28.9414 31.0022 28.9414 33.0009 Z"/>
</svg>