<?xml version="1.0" encoding="utf-8"?>
<!DOCTYPE svg PUBLIC "-//W3C//DTD SVG 1.1//EN" "http://www.w3.org/Graphics/SVG/1.1/DTD/svg11.dtd">
<svg version="1.1" baseProfile="full" 
	xmlns="http://www.w3.org/2000/svg"
	xmlns:xlink="http://www.w3.org/1999/xlink"
	xmlns:ev="http://www.w3.org/2001/xml-events"
	width="242px" height="86px">
<path fill="rgb(255,255,255)" fill-rule="evenodd" d="M238.754 46.173 C238.754 46.173 241.999 46.173 241.999 46.173 C241.999 46.173 241.999 47.2003 241.999 47.2003 C241.999 47.2003 226.031 47.2003 226.031 47.2003 C226.031 47.2003 226.031 46.173 226.031 46.173 C226.031 46.173 230.61 46.173 230.61 46.173 C230.61 46.173 221.703 35.0647 221.703 35.0647 C221.703 35.0647 219.476 37.1833 219.476 37.1833 C219.476 37.1833 219.476 46.173 219.476 46.173 C219.476 46.173 223.93 46.173 223.93 46.173 C223.93 46.173 223.93 47.2003 223.93 47.2003 C223.93 47.2003 209.107 47.2003 209.107 47.2003 C209.107 47.2003 209.107 46.173 209.107 46.173 C209.107 46.173 214.133 46.173 214.133 46.173 C214.133 46.173 214.133 2.63757 214.133 2.63757 C214.133 2.63757 209.107 2.63757 209.107 2.63757 C209.107 2.63757 209.107 1.61023 209.107 1.61023 C209.107 1.61023 214.133 1.61023 214.133 1.61023 C216.168 1.61023 218.205 1.48168 219.476 0.00511834 C219.476 0.00511834 219.476 35.7707 219.476 35.7707 C219.476 35.7707 229.655 25.8822 229.655 25.8822 C231.056 24.534 231.883 23.3782 231.883 22.9284 C231.883 22.2224 230.992 21.9011 229.02 21.9011 C229.02 21.9011 226.857 21.9011 226.857 21.9011 C226.857 21.9011 226.857 20.8736 226.857 20.8736 C226.857 20.8736 240.282 20.8736 240.282 20.8736 C240.282 20.8736 240.282 21.9011 240.282 21.9011 C240.282 21.9011 238.055 21.9011 238.055 21.9011 C235.891 21.9011 234.873 22.4147 232.709 24.4694 C232.709 24.4694 225.648 31.212 225.648 31.212 C225.648 31.212 235.636 43.7323 235.636 43.7323 C237.037 45.4663 237.546 46.173 238.754 46.173 Z M207.621 26.2674 C205.521 26.2674 204.821 25.1761 204.821 23.4421 C204.821 22.0295 205.521 21.0666 206.221 20.6813 C205.967 20.4883 205.649 20.4883 205.33 20.4883 C202.722 20.4883 198.014 24.6624 198.014 33.01 C198.014 33.01 198.014 46.173 198.014 46.173 C198.014 46.173 203.804 46.173 203.804 46.173 C203.804 46.173 203.804 47.2003 203.804 47.2003 C203.804 47.2003 187.325 47.2003 187.325 47.2003 C187.325 47.2003 187.325 46.173 187.325 46.173 C187.325 46.173 192.67 46.173 192.67 46.173 C192.67 46.173 192.67 21.9011 192.67 21.9011 C192.67 21.9011 187.325 21.9011 187.325 21.9011 C187.325 21.9011 187.325 20.8736 187.325 20.8736 C187.325 20.8736 192.67 20.8736 192.67 20.8736 C194.706 20.8736 196.741 20.7452 198.014 19.461 C198.014 19.461 198.014 27.0379 198.014 27.0379 C198.014 27.0379 198.141 27.0379 198.141 27.0379 C198.904 24.1488 201.131 19.461 206.349 19.461 C208.703 19.461 210.547 21.002 210.547 23.2498 C210.547 24.9193 209.53 26.2674 207.621 26.2674 Z M181.958 47.971 C178.967 47.971 176.803 46.2381 176.359 43.9893 C176.359 43.9893 176.231 43.9893 176.231 43.9893 C174.069 46.8797 171.205 47.971 167.006 47.971 C162.044 47.971 159.054 45.4663 159.054 41.1012 C159.054 33.9089 168.533 32.1109 175.086 32.1109 C175.086 32.1109 176.294 32.1109 176.294 32.1109 C176.294 32.1109 176.294 24.2126 176.294 24.2126 C176.294 21.195 173.495 20.4883 171.078 20.4883 C169.233 20.4883 164.907 21.195 164.907 23.5067 C164.907 25.0477 167.006 24.341 167.006 27.2309 C167.006 28.7719 165.734 29.9278 164.079 29.9278 C162.299 29.9278 161.28 28.5151 161.28 26.3319 C161.28 23.0568 164.716 19.461 171.078 19.461 C175.913 19.461 181.64 21.9655 181.64 26.9095 C181.64 26.9095 181.64 43.7323 181.64 43.7323 C181.64 44.9526 181.83 46.5576 183.548 46.5576 C185.011 46.5576 185.902 45.3385 186.856 43.9893 C186.856 43.9893 187.556 44.504 187.556 44.504 C186.347 46.6228 184.694 47.971 181.958 47.971 Z M176.294 33.1384 C176.294 33.1384 175.213 33.1384 175.213 33.1384 C170.569 33.1384 164.779 33.2668 164.779 40.1365 C164.779 43.7323 165.353 46.4298 169.424 46.4298 C174.196 46.4298 176.294 42.834 176.294 41.5498 C176.294 41.5498 176.294 33.1384 176.294 33.1384 Z M144.242 27.0379 C142.078 27.0379 139.533 26.5888 138.261 25.9466 C138.261 25.9466 138.261 46.173 138.261 46.173 C138.261 46.173 144.75 46.173 144.75 46.173 C144.75 46.173 144.75 47.2003 144.75 47.2003 C144.75 47.2003 125.473 47.2003 125.473 47.2003 C125.473 47.2003 125.473 46.173 125.473 46.173 C125.473 46.173 131.772 46.173 131.772 46.173 C131.772 46.173 131.772 3.02283 131.772 3.02283 C131.772 3.02283 125.473 3.02283 125.473 3.02283 C125.473 3.02283 125.473 1.99548 125.473 1.99548 C125.473 1.99548 143.605 1.99548 143.605 1.99548 C153.085 1.99548 160.402 5.27052 160.402 14.517 C160.402 23.5705 151.94 27.0379 144.242 27.0379 Z M142.142 3.02283 C142.142 3.02283 138.261 3.02283 138.261 3.02283 C138.261 3.02283 138.261 24.6624 138.261 24.6624 C139.216 25.3045 141.06 26.0106 143.16 26.0106 C147.358 26.0106 153.53 23.7635 153.53 15.0946 C153.53 6.68312 149.713 3.02283 142.142 3.02283 Z M114.618 41.0445 C114.618 41.0445 104.375 41.0445 104.375 41.0445 C91.396 41.0445 91.2049 46.1176 91.2049 52.4735 C91.2049 52.4735 90.187 52.4735 90.187 52.4735 C90.187 52.4735 90.187 40.0172 90.187 40.0172 C90.187 40.0172 122.698 40.0172 122.698 40.0172 C122.698 40.0172 95.4679 84.1947 95.4679 84.1947 C95.4679 84.1947 103.039 84.1947 103.039 84.1947 C111.501 84.1947 122.062 83.8728 122.062 74.9482 C122.062 74.9482 122.062 72.3797 122.062 72.3797 C122.062 72.3797 123.079 72.3797 123.079 72.3797 C123.079 72.3797 123.079 85.222 123.079 85.222 C123.079 85.222 87.5149 85.222 87.5149 85.222 C87.5149 85.222 114.618 41.0445 114.618 41.0445 Z M112.803 32.1369 C112.803 32.1369 115.896 32.1369 115.896 32.1369 C115.896 32.1369 115.896 19.2167 115.896 19.2167 C115.896 17.0439 114.839 16.3324 113.586 16.3324 C110.297 16.3324 108.615 19.6515 107.91 20.9948 C107.91 20.9948 107.91 32.1369 107.91 32.1369 C107.91 32.1369 110.885 32.1369 110.885 32.1369 C110.885 32.1369 110.885 32.7687 110.885 32.7687 C110.885 32.7687 101.528 32.7687 101.528 32.7687 C101.528 32.7687 101.528 32.1369 101.528 32.1369 C101.528 32.1369 104.622 32.1369 104.622 32.1369 C104.622 32.1369 104.622 17.2018 104.622 17.2018 C104.622 17.2018 101.528 17.2018 101.528 17.2018 C101.528 17.2018 101.528 16.5694 101.528 16.5694 C101.528 16.5694 104.622 16.5694 104.622 16.5694 C106.5 16.5694 107.205 16.5694 107.91 15.7006 C107.91 15.7006 107.91 19.7305 107.91 19.7305 C107.91 19.7305 107.988 19.7305 107.988 19.7305 C109.006 17.8337 110.963 15.7006 113.821 15.7006 C118.01 15.7006 119.184 17.8337 119.184 20.1652 C119.184 20.1652 119.184 32.1369 119.184 32.1369 C119.184 32.1369 122.277 32.1369 122.277 32.1369 C122.277 32.1369 122.277 32.7687 122.277 32.7687 C122.277 32.7687 112.803 32.7687 112.803 32.7687 C112.803 32.7687 112.803 32.1369 112.803 32.1369 Z M90.8083 32.1369 C90.8083 32.1369 93.9397 32.1369 93.9397 32.1369 C93.9397 32.1369 93.9397 5.34893 93.9397 5.34893 C93.9397 5.34893 90.8083 5.34893 90.8083 5.34893 C90.8083 5.34893 90.8083 4.71646 90.8083 4.71646 C90.8083 4.71646 93.9397 4.71646 93.9397 4.71646 C95.1925 4.71646 96.4452 4.63744 97.2283 3.72888 C97.2283 3.72888 97.2283 32.1369 97.2283 32.1369 C97.2283 32.1369 100.36 32.1369 100.36 32.1369 C100.36 32.1369 100.36 32.7687 100.36 32.7687 C100.36 32.7687 90.8083 32.7687 90.8083 32.7687 C90.8083 32.7687 90.8083 32.1369 90.8083 32.1369 Z M82.7572 33.2432 C77.7069 33.2432 74.4577 29.0156 74.4577 24.4719 C74.4577 19.9282 77.7069 15.7006 82.7572 15.7006 C87.8075 15.7006 91.0567 19.9282 91.0567 24.4719 C91.0567 29.0156 87.8075 33.2432 82.7572 33.2432 Z M82.7572 16.3324 C78.3724 16.3324 78.2159 19.4936 78.2159 22.9309 C78.2159 22.9309 78.2159 26.0124 78.2159 26.0124 C78.2159 29.4502 78.3724 32.6108 82.7572 32.6108 C87.1414 32.6108 87.2986 29.4502 87.2986 26.0124 C87.2986 26.0124 87.2986 22.9309 87.2986 22.9309 C87.2986 19.4936 87.1414 16.3324 82.7572 16.3324 Z M65.3804 33.2432 C60.3307 33.2432 57.0809 29.6083 57.0809 25.1435 C57.0809 19.9675 60.9956 15.7006 65.6152 15.7006 C68.3554 15.7006 71.2528 16.9251 71.2528 19.3748 C71.2528 20.5601 70.3524 21.3506 69.3733 21.3506 C68.16 21.3506 67.4946 20.4812 67.4946 19.6515 C67.4946 18.0712 68.4731 18.1503 68.4731 17.5576 C68.4731 16.6881 66.6725 16.3324 65.5369 16.3324 C61.7399 16.3324 60.8391 18.8219 60.8391 22.5751 C60.8391 22.5751 60.8391 26.0124 60.8391 26.0124 C60.8391 29.4502 60.9956 32.6108 65.3804 32.6108 C69.3345 32.6108 71.0568 29.6083 71.3309 27.1977 C71.3309 27.1977 71.9571 27.1977 71.9571 27.1977 C71.84 30.2008 69.2557 33.2432 65.3804 33.2432 Z M57.2703 32.7687 C57.2703 32.7687 47.7963 32.7687 47.7963 32.7687 C47.7963 32.7687 47.7963 32.1369 47.7963 32.1369 C47.7963 32.1369 50.8889 32.1369 50.8889 32.1369 C50.8889 32.1369 50.8889 19.2167 50.8889 19.2167 C50.8889 17.0439 49.8322 16.3324 48.5795 16.3324 C45.2909 16.3324 43.6074 19.6515 42.9031 20.9948 C42.9031 20.9948 42.9031 32.1369 42.9031 32.1369 C42.9031 32.1369 45.878 32.1369 45.878 32.1369 C45.878 32.1369 45.878 32.7687 45.878 32.7687 C45.878 32.7687 36.5218 32.7687 36.5218 32.7687 C36.5218 32.7687 36.5218 32.1369 36.5218 32.1369 C36.5218 32.1369 39.6145 32.1369 39.6145 32.1369 C39.6145 32.1369 39.6145 17.2018 39.6145 17.2018 C39.6145 17.2018 36.5218 17.2018 36.5218 17.2018 C36.5218 17.2018 36.5218 16.5694 36.5218 16.5694 C36.5218 16.5694 39.6145 16.5694 39.6145 16.5694 C41.4933 16.5694 42.1981 16.5694 42.9031 15.7006 C42.9031 15.7006 42.9031 19.7305 42.9031 19.7305 C42.9031 19.7305 42.9814 19.7305 42.9814 19.7305 C43.9993 17.8337 45.9563 15.7006 48.8142 15.7006 C53.0032 15.7006 54.1776 17.8337 54.1776 20.1652 C54.1776 20.1652 54.1776 32.1369 54.1776 32.1369 C54.1776 32.1369 57.2703 32.1369 57.2703 32.1369 C57.2703 32.1369 57.2703 32.7687 57.2703 32.7687 Z M25.8011 32.1369 C25.8011 32.1369 28.9331 32.1369 28.9331 32.1369 C28.9331 32.1369 28.9331 17.2018 28.9331 17.2018 C28.9331 17.2018 25.8011 17.2018 25.8011 17.2018 C25.8011 17.2018 25.8011 16.5694 25.8011 16.5694 C25.8011 16.5694 28.9331 16.5694 28.9331 16.5694 C30.1859 16.5694 31.4386 16.4903 32.2211 15.7006 C32.2211 15.7006 32.2211 32.1369 32.2211 32.1369 C32.2211 32.1369 35.3533 32.1369 35.3533 32.1369 C35.3533 32.1369 35.3533 32.7687 35.3533 32.7687 C35.3533 32.7687 25.8011 32.7687 25.8011 32.7687 C25.8011 32.7687 25.8011 32.1369 25.8011 32.1369 Z M30.5772 10.6035 C29.481 10.6035 28.5808 9.69478 28.5808 8.5884 C28.5808 7.48203 29.481 6.57347 30.5772 6.57347 C31.6734 6.57347 32.5736 7.48203 32.5736 8.5884 C32.5736 9.69478 31.6734 10.6035 30.5772 10.6035 Z M0.00111081 32.1369 C0.00111081 32.1369 3.91639 32.1369 3.91639 32.1369 C3.91639 32.1369 3.91639 5.58588 3.91639 5.58588 C3.91639 5.58588 0.00111081 5.58588 0.00111081 5.58588 C0.00111081 5.58588 0.00111081 4.95342 0.00111081 4.95342 C0.00111081 4.95342 11.824 4.95342 11.824 4.95342 C11.824 4.95342 11.824 5.58588 11.824 5.58588 C11.824 5.58588 7.90937 5.58588 7.90937 5.58588 C7.90937 5.58588 7.90937 32.1369 7.90937 32.1369 C7.90937 32.1369 12.8025 32.1369 12.8025 32.1369 C20.3188 32.1369 22.6678 31.1493 22.6678 23.6815 C22.6678 23.6815 23.2939 23.6815 23.2939 23.6815 C23.2939 23.6815 23.2939 32.7687 23.2939 32.7687 C23.2939 32.7687 0.00111081 32.7687 0.00111081 32.7687 C0.00111081 32.7687 0.00111081 32.1369 0.00111081 32.1369 Z M139.338 57.4827 C147.545 57.4827 152.824 64.3536 152.824 71.737 C152.824 79.1217 147.545 85.9927 139.338 85.9927 C131.131 85.9927 125.85 79.1217 125.85 71.737 C125.85 64.3536 131.131 57.4827 139.338 57.4827 Z M131.958 74.2417 C131.958 79.8284 132.212 84.9652 139.338 84.9652 C146.462 84.9652 146.716 79.8284 146.716 74.2417 C146.716 74.2417 146.716 69.2325 146.716 69.2325 C146.716 63.647 146.462 58.51 139.338 58.51 C132.212 58.51 131.958 63.647 131.958 69.2325 C131.958 69.2325 131.958 74.2417 131.958 74.2417 Z M168.751 57.4827 C176.959 57.4827 182.238 64.3536 182.238 71.737 C182.238 79.1217 176.959 85.9927 168.751 85.9927 C160.544 85.9927 155.263 79.1217 155.263 71.737 C155.263 64.3536 160.544 57.4827 168.751 57.4827 Z M161.37 74.2417 C161.37 79.8284 161.625 84.9652 168.751 84.9652 C175.876 84.9652 176.131 79.8284 176.131 74.2417 C176.131 74.2417 176.131 69.2325 176.131 69.2325 C176.131 63.647 175.876 58.51 168.751 58.51 C161.625 58.51 161.37 63.647 161.37 69.2325 C161.37 69.2325 161.37 74.2417 161.37 74.2417 Z"/>
</svg>
