<?xml version="1.0" encoding="utf-8"?>
<!DOCTYPE svg PUBLIC "-//W3C//DTD SVG 1.1//EN" "http://www.w3.org/Graphics/SVG/1.1/DTD/svg11.dtd">
<svg version="1.1" baseProfile="full" 
	xmlns="http://www.w3.org/2000/svg"
	xmlns:xlink="http://www.w3.org/1999/xlink"
	xmlns:ev="http://www.w3.org/2001/xml-events"
	width="255px" height="27px">
<path fill="rgb(255,255,255)" fill-rule="evenodd" d="M255 22.4493 C255 22.4493 255 26.5516 255 26.5516 C255 26.5516 235.764 26.5516 235.764 26.5516 C235.764 26.5516 235.764 0.445027 235.764 0.445027 C235.764 0.445027 254.817 0.445027 254.817 0.445027 C254.817 0.445027 254.817 4.54745 254.817 4.54745 C254.817 4.54745 240.279 4.54745 240.279 4.54745 C240.279 4.54745 240.279 11.3351 240.279 11.3351 C240.279 11.3351 253.164 11.3351 253.164 11.3351 C253.164 11.3351 253.164 15.4375 253.164 15.4375 C253.164 15.4375 240.279 15.4375 240.279 15.4375 C240.279 15.4375 240.279 22.4493 240.279 22.4493 C240.279 22.4493 255 22.4493 255 22.4493 Z M221.079 26.9249 C217.15 26.9249 213.443 25.5448 210.359 22.7475 C210.359 22.7475 213.076 19.4655 213.076 19.4655 C215.535 21.6286 217.995 22.8597 221.189 22.8597 C223.979 22.8597 225.741 21.5541 225.741 19.5775 C225.741 19.5775 225.741 19.5027 225.741 19.5027 C225.741 17.6381 224.713 16.631 219.94 15.5124 C214.47 14.1695 211.387 12.5285 211.387 7.71747 C211.387 7.71747 211.387 7.64304 211.387 7.64304 C211.387 3.16746 215.058 0.0718644 220.161 0.0718644 C223.906 0.0718644 226.879 1.22812 229.485 3.35398 C229.485 3.35398 227.062 6.82217 227.062 6.82217 C224.75 5.06947 222.437 4.13707 220.087 4.13707 C217.444 4.13707 215.903 5.51706 215.903 7.23255 C215.903 7.23255 215.903 7.30709 215.903 7.30709 C215.903 9.32131 217.077 10.2165 221.997 11.4098 C227.429 12.7523 230.256 14.7288 230.256 19.0554 C230.256 19.0554 230.256 19.13 230.256 19.13 C230.256 24.0155 226.475 26.9249 221.079 26.9249 Z M201.291 26.5516 C201.291 26.5516 194.976 17.4516 194.976 17.4516 C194.976 17.4516 194.903 17.4516 194.903 17.4516 C194.903 17.4516 189.323 17.4516 189.323 17.4516 C189.323 17.4516 189.323 26.5516 189.323 26.5516 C189.323 26.5516 184.808 26.5516 184.808 26.5516 C184.808 26.5516 184.808 0.445027 184.808 0.445027 C184.808 0.445027 196.261 0.445027 196.261 0.445027 C199.492 0.445027 202.025 1.41464 203.677 3.0557 C205.035 4.47257 205.806 6.41224 205.806 8.68708 C205.806 8.68708 205.806 8.76162 205.806 8.76162 C205.806 13.0506 203.273 15.624 199.675 16.6686 C199.675 16.6686 206.614 26.5516 206.614 26.5516 C206.614 26.5516 201.291 26.5516 201.291 26.5516 Z M201.217 9.02303 C201.217 9.02303 201.217 8.94815 201.217 8.94815 C201.217 6.15129 199.235 4.62188 195.894 4.62188 C195.894 4.62188 189.323 4.62188 189.323 4.62188 C189.323 4.62188 189.323 13.3864 189.323 13.3864 C189.323 13.3864 195.931 13.3864 195.931 13.3864 C199.161 13.3864 201.217 11.6709 201.217 9.02303 Z M159.476 0.445027 C159.476 0.445027 178.529 0.445027 178.529 0.445027 C178.529 0.445027 178.529 4.54745 178.529 4.54745 C178.529 4.54745 163.992 4.54745 163.992 4.54745 C163.992 4.54745 163.992 11.3351 163.992 11.3351 C163.992 11.3351 176.877 11.3351 176.877 11.3351 C176.877 11.3351 176.877 15.4375 176.877 15.4375 C176.877 15.4375 163.992 15.4375 163.992 15.4375 C163.992 15.4375 163.992 22.4493 163.992 22.4493 C163.992 22.4493 178.712 22.4493 178.712 22.4493 C178.712 22.4493 178.712 26.5516 178.712 26.5516 C178.712 26.5516 159.476 26.5516 159.476 26.5516 C159.476 26.5516 159.476 0.445027 159.476 0.445027 Z M139.688 26.7383 C139.688 26.7383 129.005 0.445027 129.005 0.445027 C129.005 0.445027 133.998 0.445027 133.998 0.445027 C133.998 0.445027 141.744 20.51 141.744 20.51 C141.744 20.51 149.453 0.445027 149.453 0.445027 C149.453 0.445027 154.336 0.445027 154.336 0.445027 C154.336 0.445027 143.653 26.7383 143.653 26.7383 C143.653 26.7383 139.688 26.7383 139.688 26.7383 Z M119.093 0.445027 C119.093 0.445027 123.609 0.445027 123.609 0.445027 C123.609 0.445027 123.609 26.5516 123.609 26.5516 C123.609 26.5516 119.093 26.5516 119.093 26.5516 C119.093 26.5516 119.093 0.445027 119.093 0.445027 Z M94.6432 7.97842 C94.6432 7.97842 94.6432 26.5516 94.6432 26.5516 C94.6432 26.5516 90.2008 26.5516 90.2008 26.5516 C90.2008 26.5516 90.2008 0.445027 90.2008 0.445027 C90.2008 0.445027 94.3859 0.445027 94.3859 0.445027 C94.3859 0.445027 108.153 18.4958 108.153 18.4958 C108.153 18.4958 108.153 0.445027 108.153 0.445027 C108.153 0.445027 112.595 0.445027 112.595 0.445027 C112.595 0.445027 112.595 26.5516 112.595 26.5516 C112.595 26.5516 108.813 26.5516 108.813 26.5516 C108.813 26.5516 94.6432 7.97842 94.6432 7.97842 Z M83.996 13.4237 C83.996 13.4237 83.996 13.4982 83.996 13.4982 C83.996 20.8455 78.4159 26.9993 70.523 26.9993 C66.0852 26.9993 62.4019 25.0774 60.0275 22.089 C57.6457 23.7558 56.1435 24.701 56.0383 24.5589 C55.9331 24.4169 57.2453 23.2118 59.4847 21.3475 C57.9756 19.1449 57.1235 16.4579 57.1235 13.573 C57.1235 13.573 57.1235 13.4982 57.1235 13.4982 C57.1235 6.15129 62.7037 -0.00256513 70.5963 -0.00256513 C75.0116 -0.00256513 78.6793 1.90069 81.055 4.86321 C83.4588 3.17986 84.9757 2.22468 85.0815 2.36779 C85.1873 2.51022 83.8632 3.72556 81.6047 5.60468 C83.1328 7.81547 83.996 10.5195 83.996 13.4237 Z M70.523 4.2115 C65.42 4.2115 61.8596 8.35158 61.8596 13.4237 C61.8596 13.4237 61.8596 13.4982 61.8596 13.4982 C61.8596 15.2856 62.3124 16.9652 63.1202 18.3926 C64.6158 17.1991 66.2867 15.8877 68.0735 14.5069 C67.9594 14.1934 67.8942 13.8542 67.8942 13.4982 C67.8942 11.9437 69.0876 10.6835 70.56 10.6835 C71.1998 10.6835 71.7866 10.9219 72.2461 11.3186 C74.0522 9.95385 75.7599 8.68415 77.3064 7.55338 C75.7496 5.51932 73.3645 4.2115 70.523 4.2115 Z M79.2604 13.4982 C79.2604 11.6909 78.797 9.99377 77.972 8.55615 C76.4782 9.74781 74.8102 11.0568 73.0272 12.4339 C73.1544 12.7624 73.2258 13.1213 73.2258 13.4982 C73.2258 15.0531 72.0323 16.3132 70.56 16.3132 C69.8999 16.3132 69.2971 16.0586 68.8316 15.639 C67.0271 17.0023 65.3219 18.2699 63.778 19.3984 C65.334 21.4583 67.7339 22.7848 70.5963 22.7848 C75.6991 22.7848 79.2604 18.6451 79.2604 13.573 C79.2604 13.573 79.2604 13.4982 79.2604 13.4982 Z M38.5838 26.9993 C30.6908 26.9993 25.1844 20.9199 25.1844 13.573 C25.1844 13.573 25.1844 13.4982 25.1844 13.4982 C25.1844 6.15129 30.7645 -0.00256513 38.6571 -0.00256513 C46.5501 -0.00256513 52.0569 6.0763 52.0569 13.4237 C52.0569 13.4237 52.0569 13.4982 52.0569 13.4982 C52.0569 20.8455 46.4768 26.9993 38.5838 26.9993 Z M47.3213 13.4982 C47.3213 8.42601 43.6867 4.2115 38.5838 4.2115 C33.4809 4.2115 29.9205 8.35158 29.9205 13.4237 C29.9205 13.4237 29.9205 13.4982 29.9205 13.4982 C29.9205 18.5706 33.5547 22.7848 38.6571 22.7848 C43.76 22.7848 47.3213 18.6451 47.3213 13.573 C47.3213 13.573 47.3213 13.4982 47.3213 13.4982 Z M-3.04026e-005 23.1579 C-3.04026e-005 23.1579 15.1615 4.51012 15.1615 4.51012 C15.1615 4.51012 0.477188 4.51012 0.477188 4.51012 C0.477188 4.51012 0.477188 0.445027 0.477188 0.445027 C0.477188 0.445027 21.0351 0.445027 21.0351 0.445027 C21.0351 0.445027 21.0351 3.83879 21.0351 3.83879 C21.0351 3.83879 5.87369 22.4865 5.87369 22.4865 C5.87369 22.4865 21.0351 22.4865 21.0351 22.4865 C21.0351 22.4865 21.0351 26.5516 21.0351 26.5516 C21.0351 26.5516 -3.04026e-005 26.5516 -3.04026e-005 26.5516 C-3.04026e-005 26.5516 -3.04026e-005 23.1579 -3.04026e-005 23.1579 Z"/>
</svg>